<svg width="41" height="48" viewBox="0 0 41 48" fill="none" xmlns="http://www.w3.org/2000/svg">
<path d="M15.2131 9.54779C15.5337 8.90561 16.1926 8.5 16.9108 8.5H24.0579C24.7762 8.5 25.4351 8.90561 25.7556 9.54779L26.183 10.3954H31.8817C32.9324 10.3954 33.7812 11.2442 33.7812 12.2908C33.7812 13.3374 32.9324 14.1862 31.8817 14.1862H9.08705C8.03814 14.1862 7.1875 13.3374 7.1875 12.2908C7.1875 11.2442 8.03814 10.3954 9.08705 10.3954H14.7857L15.2131 9.54779V9.54779ZM30.6232 36.1075C30.5283 37.6594 29.2876 38.8262 27.7798 38.8262H13.1889C11.6841 38.8262 10.4387 37.6594 10.3449 36.1075L9.03363 16.0816H31.8817L30.6232 36.1075Z" fill="#DEDEDE"/>
</svg>
