<svg xmlns="http://www.w3.org/2000/svg" width="18" height="17" fill="none" viewBox="0 0 18 17"><path fill="#FFB7B7" d="M8.87572 0C8.0359 0 7.35509 0.6808 7.35509 1.52063V6.84703L2.03478 6.84367C1.19496 6.84313 0.513718 7.52351 0.513184 8.36335C0.512662 9.20318 1.19304 9.8844 2.03287 9.88493L7.35509 9.8883V15.2063C7.35509 16.0462 8.0359 16.727 8.87572 16.727C9.71554 16.727 10.3964 16.0462 10.3964 15.2063V9.8902L15.7168 9.89356C16.5566 9.89408 17.2378 9.21372 17.2384 8.37388C17.2389 7.53405 16.5585 6.85283 15.7187 6.8523L10.3964 6.84893V1.52063C10.3964 0.6808 9.71554 0 8.87572 0Z"/></svg>