<?xml version="1.0" standalone="no"?>
<!DOCTYPE svg PUBLIC "-//W3C//DTD SVG 20010904//EN"
 "http://www.w3.org/TR/2001/REC-SVG-20010904/DTD/svg10.dtd">
<svg version="1.0" xmlns="http://www.w3.org/2000/svg"
 width="700.000000pt" height="700.000000pt" viewBox="0 0 700.000000 700.000000"
 preserveAspectRatio="xMidYMid meet">
<metadata>
Created by potrace 1.14, written by Peter Selinger 2001-2017
</metadata>
<g transform="translate(0.000000,700.000000) scale(0.100000,-0.100000)"
fill="#000000" stroke="none">
<path d="M5960 4691 c-99 -40 -499 -223 -1030 -471 -80 -37 -170 -79 -200 -93
-30 -14 -179 -82 -330 -152 -151 -70 -327 -151 -390 -180 -252 -116 -350 -162
-362 -173 -7 -6 -25 -13 -41 -17 -15 -4 -27 -11 -27 -15 0 -4 -12 -10 -27 -13
-16 -3 -109 -43 -208 -90 -233 -109 -259 -121 -655 -304 -184 -85 -377 -175
-428 -199 -51 -24 -95 -44 -97 -44 -2 0 -42 -18 -87 -41 -46 -22 -126 -60
-178 -84 -259 -117 -688 -318 -707 -331 -27 -17 -32 -71 -8 -80 20 -8 57 7
1055 446 708 311 777 341 965 425 83 36 219 96 304 132 85 37 162 73 170 82
22 22 87 51 113 51 11 0 46 13 77 29 31 16 101 47 156 69 55 22 168 70 250
107 83 37 204 90 270 119 403 177 1213 533 1285 566 47 21 125 55 173 76 114
48 187 114 187 168 0 70 -85 76 -230 17z"/>
<path d="M6210 4045 c-30 -8 -181 -57 -335 -110 -154 -53 -345 -118 -425 -145
-80 -26 -302 -102 -495 -168 -192 -66 -451 -155 -574 -197 -124 -42 -235 -84
-248 -92 -13 -9 -26 -13 -30 -10 -3 3 -12 0 -19 -8 -16 -15 -159 -65 -189 -65
-28 0 -267 -80 -285 -95 -8 -7 -44 -19 -80 -28 -98 -22 -2342 -795 -2352 -809
-13 -22 -9 -58 8 -65 18 -7 25 -5 354 99 596 187 668 210 735 233 39 13 284
92 545 175 261 83 549 175 640 205 359 117 540 175 640 206 58 17 114 38 125
45 11 7 49 19 85 28 36 8 124 33 195 56 72 23 213 69 315 102 102 33 246 79
320 103 74 23 236 75 360 115 124 39 342 109 485 155 273 86 342 115 388 161
87 87 -6 150 -163 109z"/>
<path d="M1577 2233 c-4 -3 -7 -141 -7 -305 l0 -298 -137 0 c-76 0 -269 -3
-430 -7 l-292 -6 -6 -26 c-3 -14 -21 -138 -40 -276 -19 -137 -42 -295 -50
-350 -29 -193 -29 -175 2 -175 16 0 91 11 168 25 77 13 143 21 147 17 4 -4 9
-79 10 -167 l3 -160 368 -3 367 -2 0 214 c0 196 2 215 18 220 41 12 184 26
262 25 47 0 164 6 260 15 96 8 252 20 345 25 94 6 247 15 342 21 199 12 701
12 918 0 83 -5 206 -11 275 -15 204 -9 551 -34 773 -54 114 -10 216 -17 227
-14 11 3 31 2 45 -1 l25 -6 0 -215 0 -215 365 0 365 0 2 168 3 167 30 -1 c17
0 92 -11 168 -24 75 -13 140 -20 143 -17 4 3 -8 140 -25 304 -17 164 -31 327
-31 363 -1 36 -4 85 -8 110 l-7 45 -85 7 c-47 3 -162 6 -257 7 l-172 1 15 35
c37 89 2 200 -89 280 -53 46 -161 107 -209 119 -39 9 -77 -9 -92 -46 l-14 -32
-22 52 c-25 57 -46 80 -60 66 -5 -5 -21 -61 -35 -124 -15 -63 -28 -117 -31
-119 -3 -3 -15 8 -28 23 -21 27 -24 28 -58 17 -80 -26 -96 -100 -42 -201 16
-30 30 -58 32 -62 2 -5 -71 -8 -162 -8 l-166 0 0 305 0 305 -355 0 -355 0 0
-305 0 -305 -45 0 -45 0 -2 303 -3 302 -357 3 -358 2 0 -305 0 -305 -45 0 -45
0 0 305 0 305 -352 -2 -353 -3 -3 -302 -2 -303 -45 0 -45 0 -2 303 -3 302
-351 3 c-193 1 -353 -1 -357 -5z"/>
</g>
</svg>
