<svg xmlns="http://www.w3.org/2000/svg" width="30" height="26" fill="none" viewBox="0 0 30 26"><path fill="#FFB7B7" d="M1.32517 0.770682C0.997736 0.770682 0.683712 0.900755 0.452181 1.13229C0.220649 1.36382 0.0905762 1.67784 0.0905762 2.00528C0.0905762 2.33271 0.220649 2.64674 0.452181 2.87827C0.683712 3.1098 0.997736 3.23987 1.32517 3.23987H4.06597L7.30555 16.2031C7.58086 17.3019 8.56484 18.055 9.69696 18.055H23.8578C24.9726 18.055 25.9195 17.3143 26.2121 16.2402L29.4122 4.47447H8.73274L9.35004 6.94366H26.2097L23.8565 15.5858H9.69573L6.45738 2.62257C6.32361 2.09075 6.01524 1.61919 5.58166 1.28343C5.14807 0.94766 4.61435 0.767108 4.06597 0.770682H1.32517ZM22.3133 18.055C20.2824 18.055 18.6095 19.7279 18.6095 21.7588C18.6095 23.7897 20.2824 25.4626 22.3133 25.4626C24.3442 25.4626 26.0171 23.7897 26.0171 21.7588C26.0171 19.7279 24.3442 18.055 22.3133 18.055ZM11.2019 18.055C9.17102 18.055 7.49815 19.7279 7.49815 21.7588C7.49815 23.7897 9.17102 25.4626 11.2019 25.4626C13.2328 25.4626 14.9057 23.7897 14.9057 21.7588C14.9057 19.7279 13.2328 18.055 11.2019 18.055ZM11.2019 20.5242C11.8982 20.5242 12.4365 21.0625 12.4365 21.7588C12.4365 22.4551 11.8982 22.9934 11.2019 22.9934C10.5056 22.9934 9.96734 22.4551 9.96734 21.7588C9.96734 21.0625 10.5056 20.5242 11.2019 20.5242ZM22.3133 20.5242C23.0096 20.5242 23.5479 21.0625 23.5479 21.7588C23.5479 22.4551 23.0096 22.9934 22.3133 22.9934C21.617 22.9934 21.0787 22.4551 21.0787 21.7588C21.0787 21.0625 21.617 20.5242 22.3133 20.5242Z"/></svg>