<svg width="204" height="61" viewBox="0 0 204 61" fill="none" xmlns="http://www.w3.org/2000/svg">
<g clip-path="url(#clip0_130_60)">
<path d="M187.755 0.00019825H16.2545C15.6293 0.00019825 15.0117 0.00019825 14.3882 0.00324825C13.8663 0.00629825 13.3485 0.0151585 12.8216 0.0226157C11.6769 0.034666 10.5348 0.124755 9.4054 0.292098C8.27756 0.463086 7.18506 0.785445 6.16483 1.24827C5.14585 1.71502 4.21479 2.3215 3.4054 3.04573C2.59177 3.76792 1.91354 4.60267 1.39681 5.51789C0.87864 6.43129 0.519343 7.41008 0.331323 8.42046C0.141515 9.42956 0.0393775 10.4503 0.0258273 11.4735C0.010007 11.9411 0.00833634 12.4102 0 12.8778V48.1271C0.00833634 48.6006 0.010007 49.0593 0.0258273 49.533C0.0393816 50.5561 0.141519 51.5768 0.331323 52.5859C0.518824 53.5968 0.878142 54.5762 1.39681 55.4899C1.91331 56.4022 2.59163 57.2335 3.4054 57.9517C4.21172 58.6792 5.14339 59.2861 6.16483 59.7492C7.18505 60.2133 8.27744 60.5376 9.4054 60.7112C10.535 60.8772 11.6769 60.9673 12.8216 60.9808C13.3485 60.9912 13.8663 60.9972 14.3882 60.9972C15.0117 61.0002 15.6294 61.0002 16.2545 61.0002H187.755C188.367 61.0002 188.99 61.0002 189.603 60.9972C190.122 60.9972 190.655 60.9912 191.174 60.9808C192.317 60.9681 193.457 60.8779 194.584 60.7112C195.715 60.5364 196.812 60.2122 197.837 59.7492C198.857 59.2858 199.788 58.6789 200.594 57.9517C201.406 57.2307 202.085 56.4 202.608 55.4899C203.123 54.5755 203.479 53.5962 203.664 52.5859C203.854 51.5767 203.96 50.5562 203.98 49.533C203.987 49.0593 203.987 48.6006 203.987 48.1271C204 47.573 204 47.022 204 46.459V14.5428C204 13.9843 204 13.4303 203.987 12.8778C203.987 12.4102 203.987 11.9411 203.98 11.4734C203.96 10.4501 203.854 9.42963 203.664 8.42039C203.478 7.4106 203.122 6.43189 202.608 5.51783C201.556 3.68337 199.887 2.19014 197.837 1.24814C196.812 0.786438 195.715 0.464165 194.584 0.291961C193.457 0.12388 192.317 0.0337601 191.174 0.0224022C190.655 0.0149602 190.122 0.00602375 189.603 0.00305C188.99 0 188.367 0 187.755 0V0.00019825Z" fill="#A6A6A6"/>
<path d="M14.3965 59.6657C13.8771 59.6657 13.3702 59.6598 12.8549 59.6494C11.7873 59.637 10.7223 59.5538 9.66844 59.4007C8.6858 59.2493 7.73388 58.9677 6.84408 58.5651C5.96244 58.1659 5.15832 57.6425 4.46251 57.0148C3.75664 56.3946 3.16896 55.6752 2.72278 54.8852C2.27167 54.09 1.95949 53.2377 1.79708 52.3579C1.6217 51.4126 1.52682 50.4567 1.51324 49.4985C1.50243 49.1769 1.48828 48.1061 1.48828 48.1061V12.8777C1.48828 12.8777 1.50335 11.8233 1.51332 11.5135C1.52632 10.5569 1.62066 9.60249 1.79552 8.65864C1.95822 7.77645 2.27065 6.92169 2.72199 6.12393C3.16654 5.33446 3.75095 4.61453 4.45257 3.99206C5.15341 3.36367 5.96011 2.83752 6.84324 2.43279C7.731 2.03154 8.68112 1.75191 9.66178 1.60328C10.7191 1.4486 11.7878 1.36497 12.8591 1.35309L14.3973 1.33447H189.594L191.151 1.35384C192.212 1.36512 193.272 1.44801 194.319 1.60179C195.31 1.75228 196.27 2.03386 197.168 2.43726C198.937 3.2529 200.376 4.54332 201.285 6.12765C201.729 6.9199 202.036 7.76769 202.197 8.64226C202.374 9.59386 202.473 10.5557 202.493 11.5203C202.498 11.9521 202.498 12.416 202.498 12.8777C202.512 13.4496 202.512 13.9939 202.512 14.5427V46.4589C202.512 47.013 202.512 47.5536 202.498 48.0986C202.498 48.5945 202.498 49.0488 202.492 49.5164C202.472 50.4637 202.374 51.4084 202.2 52.343C202.041 53.2291 201.731 54.0881 201.28 54.8897C200.83 55.6712 200.246 56.3843 199.548 57.0029C198.852 57.6339 198.046 58.1605 197.163 58.5622C196.267 58.9679 195.309 59.2505 194.319 59.4007C193.265 59.5546 192.2 59.6378 191.133 59.6494C190.633 59.6598 190.11 59.6657 189.603 59.6657L187.755 59.6688L14.3965 59.6657Z" fill="black"/>
<path d="M42.2253 30.9583C42.2437 29.6854 42.6216 28.4374 43.324 27.3303C44.0264 26.2233 45.0305 25.2931 46.2427 24.6264C45.4726 23.6425 44.4567 22.8328 43.2755 22.2617C42.0944 21.6905 40.7807 21.3735 39.4387 21.3359C36.576 21.0671 33.8007 22.8683 32.3419 22.8683C30.8549 22.8683 28.6088 21.3626 26.1902 21.4071C24.6258 21.4524 23.1011 21.8593 21.7648 22.5883C20.4285 23.3174 19.326 24.3437 18.5649 25.5671C15.2679 30.6735 17.7272 38.1781 20.8855 42.3057C22.4656 44.3268 24.3124 46.5845 26.7288 46.5045C29.0934 46.4167 29.9765 45.1556 32.8308 45.1556C35.6587 45.1556 36.4872 46.5045 38.9527 46.4535C41.49 46.4167 43.0887 44.4234 44.6134 42.3831C45.7487 40.943 46.6224 39.3513 47.202 37.667C45.7278 37.1093 44.4698 36.1757 43.5849 34.9827C42.6999 33.7897 42.227 32.3901 42.2253 30.9583Z" fill="white"/>
<path d="M37.5685 18.6215C38.952 17.1359 39.6336 15.2263 39.4685 13.2983C37.3549 13.4969 35.4025 14.4006 34.0003 15.8292C33.3148 16.5272 32.7897 17.3392 32.4551 18.2187C32.1206 19.0983 31.9831 20.0282 32.0506 20.9554C33.1078 20.9651 34.1536 20.7601 35.1094 20.3559C36.0652 19.9516 36.906 19.3586 37.5685 18.6215Z" fill="white"/>
<path d="M72.1158 41.3882H64.0464L62.1085 46.5068H58.6907L66.3339 27.5693H69.8849L77.5281 46.5068H74.0519L72.1158 41.3882ZM64.8821 39.0262H71.2784L68.1253 30.7191H68.037L64.8821 39.0262Z" fill="white"/>
<path d="M94.0347 39.604C94.0347 43.8945 91.4676 46.6511 87.5936 46.6511C86.6122 46.697 85.6362 46.4948 84.7774 46.0676C83.9185 45.6404 83.2115 45.0055 82.7373 44.2355H82.664V51.0742H79.4958V32.6997H82.5625V34.9962H82.6208C83.1168 34.2299 83.8357 33.5983 84.7011 33.1685C85.5665 32.7386 86.546 32.5267 87.5353 32.5553C91.4525 32.5553 94.0347 35.3253 94.0347 39.604ZM90.7784 39.604C90.7784 36.8086 89.1635 34.9709 86.6996 34.9709C84.2789 34.9709 82.6507 36.8473 82.6507 39.604C82.6507 42.3859 84.2789 44.2489 86.6996 44.2489C89.1635 44.2489 90.7784 42.4246 90.7784 39.604Z" fill="white"/>
<path d="M111.023 39.6039C111.023 43.8945 108.455 46.6511 104.581 46.6511C103.6 46.697 102.624 46.4948 101.765 46.0676C100.906 45.6404 100.199 45.0055 99.7251 44.2355H99.6518V51.0742H96.4836V32.6997H99.5502V34.9962H99.6085C100.104 34.2299 100.823 33.5983 101.689 33.1685C102.554 32.7386 103.534 32.5267 104.523 32.5553C108.44 32.5553 111.023 35.3253 111.023 39.6039ZM107.766 39.6039C107.766 36.8086 106.151 34.9709 103.687 34.9709C101.267 34.9709 99.6385 36.8473 99.6385 39.6039C99.6385 42.3859 101.267 44.2489 103.687 44.2489C106.151 44.2489 107.766 42.4246 107.766 39.6039H107.766Z" fill="white"/>
<path d="M122.25 41.2302C122.485 43.1081 124.524 44.3412 127.311 44.3412C129.981 44.3412 131.903 43.1081 131.903 41.4148C131.903 39.9449 130.744 39.0648 128 38.4616L125.257 37.8703C121.369 37.0304 119.565 35.4041 119.565 32.7652C119.565 29.4977 122.748 27.2534 127.268 27.2534C131.741 27.2534 134.808 29.4977 134.911 32.7652H131.713C131.521 30.8753 129.775 29.7345 127.223 29.7345C124.671 29.7345 122.924 30.8887 122.924 32.5686C122.924 33.9074 124.04 34.6953 126.768 35.2983L129.101 35.8106C133.444 36.7295 135.249 38.2903 135.249 41.0603C135.249 44.6032 132.094 46.8222 127.076 46.8222C122.382 46.8222 119.212 44.6553 119.007 41.23L122.25 41.2302Z" fill="white"/>
<path d="M142.086 29.4321V32.6996H145.021V34.9439H142.086V42.5555C142.086 43.7379 142.674 44.289 143.964 44.289C144.313 44.2835 144.661 44.2616 145.006 44.2234V46.4543C144.426 46.5513 143.837 46.5952 143.247 46.5854C140.122 46.5854 138.903 45.5354 138.903 42.8577V34.9439H136.659V32.6996H138.903V29.4321H142.086Z" fill="white"/>
<path d="M146.721 39.6038C146.721 35.2596 149.581 32.5298 154.041 32.5298C158.516 32.5298 161.363 35.2595 161.363 39.6038C161.363 43.9598 158.531 46.6777 154.041 46.6777C149.553 46.6777 146.721 43.9598 146.721 39.6038ZM158.135 39.6038C158.135 36.6238 156.609 34.8649 154.041 34.8649C151.474 34.8649 149.949 36.6372 149.949 39.6038C149.949 42.5957 151.474 44.3411 154.041 44.3411C156.609 44.3411 158.135 42.5957 158.135 39.6038H158.135Z" fill="white"/>
<path d="M163.975 32.6996H166.997V35.0496H167.07C167.275 34.3157 167.755 33.667 168.431 33.2128C169.108 32.7585 169.938 32.5263 170.783 32.5551C171.148 32.554 171.512 32.5895 171.868 32.6609V35.3118C171.407 35.1858 170.927 35.1279 170.445 35.1405C169.985 35.1238 169.526 35.1964 169.1 35.3533C168.674 35.5102 168.291 35.7477 167.977 36.0495C167.664 36.3513 167.427 36.7102 167.283 37.1016C167.139 37.493 167.091 37.9077 167.143 38.3171V46.5065H163.975L163.975 32.6996Z" fill="white"/>
<path d="M186.475 42.4512C186.049 44.9576 183.321 46.6777 179.829 46.6777C175.339 46.6777 172.552 43.9866 172.552 39.6693C172.552 35.3385 175.354 32.5298 179.696 32.5298C183.966 32.5298 186.652 35.1539 186.652 39.3402V40.3112H175.751V40.4824C175.7 40.9905 175.771 41.5024 175.959 41.9841C176.147 42.4657 176.447 42.9061 176.84 43.276C177.233 43.6459 177.709 43.9368 178.237 44.1294C178.765 44.3221 179.333 44.412 179.903 44.3932C180.651 44.456 181.403 44.3008 182.045 43.9509C182.687 43.601 183.186 43.0751 183.467 42.4512L186.475 42.4512ZM175.766 38.3304H183.482C183.51 37.8736 183.433 37.4163 183.255 36.9875C183.076 36.5587 182.8 36.1674 182.445 35.8384C182.09 35.5094 181.662 35.2496 181.189 35.0754C180.716 34.9012 180.208 34.8164 179.696 34.8262C179.18 34.8235 178.669 34.9121 178.191 35.0871C177.714 35.2621 177.28 35.5199 176.915 35.8457C176.549 36.1715 176.26 36.5588 176.062 36.9853C175.865 37.4118 175.764 37.8689 175.766 38.3305V38.3304Z" fill="white"/>
<path d="M62.6304 17.1615H63.9906C64.2247 17.1876 64.4624 17.17 64.6885 17.1099C64.9147 17.0497 65.1245 16.9483 65.3047 16.812C65.4849 16.6757 65.6315 16.5076 65.7355 16.3181C65.8394 16.1286 65.8983 15.9219 65.9085 15.711C65.9085 14.8718 65.2026 14.3297 64.0056 14.3297C63.7657 14.2997 63.5215 14.313 63.2875 14.3689C63.0534 14.4247 62.8343 14.5219 62.6429 14.6547C62.4516 14.7876 62.292 14.9534 62.1734 15.1424C62.0549 15.3313 61.9799 15.5396 61.9529 15.7549H60.4595C60.4852 15.3641 60.6006 14.9821 60.7984 14.6329C60.9963 14.2836 61.2724 13.9746 61.6096 13.7249C61.9467 13.4753 62.3378 13.2904 62.7583 13.1818C63.1788 13.0732 63.6198 13.0432 64.0538 13.0936C66.0566 13.0936 67.4668 14.0966 67.4668 15.5405C67.4715 16.0242 67.2906 16.4947 66.9542 16.8734C66.6179 17.2522 66.1465 17.5163 65.6188 17.6217V17.7289C66.2444 17.7537 66.8337 17.9991 67.2576 18.4115C67.6816 18.8238 67.9058 19.3695 67.8813 19.9293C67.835 20.3317 67.6993 20.7219 67.4823 21.0768C67.2653 21.4317 66.9712 21.7443 66.6174 21.9963C66.2636 22.2482 65.8571 22.4345 65.4217 22.5441C64.9864 22.6537 64.531 22.6844 64.0822 22.6345C63.6324 22.6894 63.1749 22.6627 62.737 22.556C62.299 22.4493 61.8896 22.2648 61.533 22.0136C61.1765 21.7623 60.8802 21.4494 60.6617 21.0935C60.4432 20.7376 60.3071 20.3459 60.2614 19.942H61.7781C61.8696 20.8124 62.7636 21.3739 64.0822 21.3739C65.4007 21.3739 66.2614 20.7433 66.2614 19.8542C66.2614 18.9524 65.4506 18.3969 64.0339 18.3969H62.6304V17.1615Z" fill="white"/>
<path d="M69.6043 20.4721C69.6043 19.236 70.6349 18.5234 72.4595 18.4221L74.5389 18.3149V17.7222C74.5389 16.9969 74.0044 16.5873 72.9673 16.5873C72.1216 16.5873 71.5372 16.8651 71.3674 17.3506H69.9007C70.0555 16.1711 71.2975 15.4146 73.0389 15.4146C74.9634 15.4146 76.0489 16.2716 76.0489 17.7222V22.4141H74.5888V21.449H74.4689C74.2256 21.7952 73.884 22.0774 73.4789 22.2668C73.0738 22.4562 72.6198 22.5461 72.1632 22.5272C71.8409 22.5572 71.5152 22.5264 71.207 22.4369C70.8989 22.3474 70.6151 22.2011 70.374 22.0075C70.133 21.8139 69.9399 21.5772 69.8073 21.3127C69.6748 21.0483 69.6056 20.7619 69.6043 20.4721ZM74.5389 19.8853V19.3112L72.6642 19.4184C71.607 19.4817 71.1276 19.8034 71.1276 20.4088C71.1276 21.0268 71.7269 21.3865 72.5511 21.3865C72.7925 21.4083 73.0365 21.3865 73.2683 21.3223C73.5002 21.2582 73.7153 21.1529 73.9007 21.0128C74.0862 20.8728 74.2382 20.7008 74.3479 20.5071C74.4575 20.3134 74.5225 20.1019 74.5389 19.8853Z" fill="white"/>
<path d="M80.0694 16.6881V22.4143H78.5544V15.5474H83.6089V16.6881L80.0694 16.6881Z" fill="white"/>
<path d="M92.7903 18.9777C92.7903 21.1595 91.5566 22.5274 89.6188 22.5274C89.1431 22.5564 88.668 22.4633 88.2495 22.259C87.831 22.0546 87.4864 21.7476 87.2564 21.3739H87.1365V24.6972H85.6216V15.5472H87.0799V16.6821H87.1932C87.4273 16.2954 87.7763 15.9741 88.2017 15.7538C88.6271 15.5334 89.1124 15.4225 89.6038 15.4333C91.5566 15.4333 92.7903 16.7952 92.7903 18.9777ZM91.232 18.9777C91.232 17.5272 90.4645 16.6508 89.1809 16.6508C87.9058 16.6508 87.1083 17.5458 87.1083 18.9837C87.1083 20.4149 87.9057 21.3107 89.1743 21.3107C90.4645 21.3106 91.232 20.4342 91.232 18.9777Z" fill="white"/>
<path d="M94.808 24.8739V23.707C94.9719 23.7256 95.1371 23.7341 95.3024 23.7323C95.6252 23.7537 95.9454 23.6677 96.2016 23.4909C96.4579 23.314 96.6321 23.0587 96.6908 22.774L96.8041 22.4396L94.0255 15.5474H95.6753L97.5999 21.0018H97.7198L99.6376 15.5474H101.244L98.3824 22.698C97.7265 24.369 97.0006 24.9051 95.4357 24.9051C95.3091 24.9051 94.9495 24.8925 94.808 24.8739Z" fill="white"/>
<path d="M102.425 20.4654H103.933C104.081 21.0708 104.715 21.3865 105.603 21.3865C106.612 21.3865 107.231 20.9889 107.231 20.3709C107.231 19.7089 106.675 19.3932 105.603 19.3932H104.454V18.3403H105.583C106.498 18.3403 106.964 18.0253 106.964 17.4512C106.964 16.9471 106.513 16.5621 105.583 16.5621C104.735 16.5621 104.116 16.8838 104.018 17.4259H102.558C102.667 16.803 103.045 16.2433 103.611 15.8672C104.176 15.491 104.884 15.3285 105.583 15.4146C107.407 15.4146 108.451 16.1526 108.451 17.3127C108.46 17.6358 108.344 17.9516 108.123 18.2075C107.903 18.4634 107.591 18.6438 107.239 18.7186V18.8258C107.658 18.8741 108.042 19.0581 108.318 19.3429C108.595 19.6277 108.746 19.9935 108.741 20.3709C108.741 21.6763 107.499 22.54 105.603 22.54C103.926 22.5399 102.564 21.8527 102.425 20.4654Z" fill="white"/>
<path d="M110.923 22.4143V15.5474H112.424V20.2706H112.544L116.082 15.5474H117.584V22.4143H116.082V17.6659H115.969L112.424 22.4144L110.923 22.4143Z" fill="white"/>
<path d="M125.856 16.6881H123.439V22.4143H121.922V16.6881H119.505V15.5474H125.856V16.6881Z" fill="white"/>
<path d="M134.017 20.5601C133.81 21.1876 133.364 21.7304 132.756 22.0935C132.148 22.4566 131.416 22.617 130.689 22.5467C130.183 22.5587 129.681 22.472 129.216 22.2928C128.752 22.1136 128.336 21.846 127.999 21.5088C127.661 21.1716 127.41 20.7727 127.262 20.3399C127.114 19.907 127.074 19.4506 127.143 19.0023C127.076 18.5526 127.117 18.0952 127.264 17.6611C127.412 17.2269 127.662 16.8262 127.997 16.486C128.333 16.1458 128.747 15.8741 129.21 15.6893C129.673 15.5045 130.175 15.4108 130.682 15.4147C132.818 15.4147 134.109 16.7201 134.109 18.8764V19.3493H128.688V19.4253C128.664 19.6773 128.699 19.9311 128.791 20.1702C128.883 20.4094 129.03 20.6286 129.223 20.8139C129.416 20.9992 129.649 21.1464 129.909 21.246C130.169 21.3457 130.449 21.3956 130.732 21.3925C131.094 21.4312 131.461 21.3728 131.786 21.2245C132.111 21.0763 132.379 20.845 132.557 20.56L134.017 20.5601ZM128.688 18.347H132.564C132.583 18.1167 132.548 17.8853 132.461 17.6677C132.374 17.4502 132.238 17.2512 132.06 17.0837C131.882 16.9162 131.667 16.7838 131.429 16.695C131.19 16.6062 130.934 16.563 130.676 16.5681C130.414 16.5649 130.153 16.6088 129.911 16.697C129.668 16.7853 129.447 16.9162 129.262 17.0821C129.077 17.2479 128.93 17.4453 128.832 17.6626C128.733 17.8798 128.684 18.1126 128.688 18.347H128.688Z" fill="white"/>
<path d="M140.44 15.5474H143.901C145.403 15.5474 146.283 16.228 146.283 17.2935C146.286 17.6316 146.158 17.9602 145.922 18.2242C145.686 18.4883 145.356 18.6718 144.986 18.744V18.8512C145.435 18.8766 145.855 19.055 146.161 19.3496C146.466 19.6442 146.633 20.0325 146.628 20.4343C146.628 21.6324 145.621 22.4143 143.936 22.4143H140.44V15.5474ZM141.941 16.5876V18.3658H143.443C144.359 18.3658 144.797 18.0508 144.797 17.47C144.797 16.9346 144.415 16.5876 143.611 16.5876L141.941 16.5876ZM141.941 19.3621V21.3741H143.738C144.634 21.3741 145.113 21.0204 145.113 20.3711C145.113 19.6838 144.57 19.3621 143.548 19.3621L141.941 19.3621Z" fill="white"/>
</g>
<defs>
<clipPath id="clip0_130_60">
<rect width="204" height="61" fill="white"/>
</clipPath>
</defs>
</svg>
