<svg xmlns="http://www.w3.org/2000/svg" width="38" height="33" fill="none" viewBox="0 0 38 33"><path fill="#030303" fill-opacity=".84" d="M1.59375 0.156256C1.17106 0.156256 0.765685 0.324169 0.466799 0.623055C0.167913 0.921941 0 1.32732 0 1.75001C0 2.1727 0.167913 2.57807 0.466799 2.87696C0.765685 3.17584 1.17106 3.34376 1.59375 3.34376H5.13187L9.31388 20.0781C9.66928 21.4966 10.9395 22.4688 12.401 22.4688H30.6813C32.1204 22.4688 33.3428 21.5125 33.7206 20.1259L37.8516 4.93751H11.1562L11.9531 8.12501H33.7174L30.6797 19.2813H12.3994L8.21897 2.54688C8.04628 1.86034 7.64821 1.25161 7.08849 0.818162C6.52877 0.384719 5.83979 0.151642 5.13187 0.156256H1.59375ZM28.6875 22.4688C26.0658 22.4688 23.9062 24.6283 23.9062 27.25C23.9062 29.8717 26.0658 32.0313 28.6875 32.0313C31.3092 32.0313 33.4688 29.8717 33.4688 27.25C33.4688 24.6283 31.3092 22.4688 28.6875 22.4688ZM14.3438 22.4688C11.722 22.4688 9.5625 24.6283 9.5625 27.25C9.5625 29.8717 11.722 32.0313 14.3438 32.0313C16.9655 32.0313 19.125 29.8717 19.125 27.25C19.125 24.6283 16.9655 22.4688 14.3438 22.4688ZM14.3438 25.6563C15.2426 25.6563 15.9375 26.3511 15.9375 27.25C15.9375 28.1489 15.2426 28.8438 14.3438 28.8438C13.4449 28.8438 12.75 28.1489 12.75 27.25C12.75 26.3511 13.4449 25.6563 14.3438 25.6563ZM28.6875 25.6563C29.5864 25.6563 30.2812 26.3511 30.2812 27.25C30.2812 28.1489 29.5864 28.8438 28.6875 28.8438C27.7886 28.8438 27.0938 28.1489 27.0938 27.25C27.0938 26.3511 27.7886 25.6563 28.6875 25.6563Z"/></svg>