<svg width="44" height="44" viewBox="0 0 44 44" fill="none" xmlns="http://www.w3.org/2000/svg">
<path d="M21.8547 14.5704C17.8407 14.5704 14.5649 17.8462 14.5649 21.8602C14.5649 25.8743 17.8407 29.1501 21.8547 29.1501C25.8688 29.1501 29.1446 25.8743 29.1446 21.8602C29.1446 17.8462 25.8688 14.5704 21.8547 14.5704ZM43.7188 21.8602C43.7188 18.8415 43.7462 15.8501 43.5766 12.8368C43.4071 9.33678 42.6087 6.23053 40.0493 3.67116C37.4844 1.10631 34.3837 0.313345 30.8837 0.143814C27.8649 -0.0257172 24.8735 0.00162665 21.8602 0.00162665C18.8415 0.00162665 15.8501 -0.0257172 12.8368 0.143814C9.33678 0.313345 6.23053 1.11178 3.67116 3.67116C1.10631 6.236 0.313345 9.33678 0.143814 12.8368C-0.0257172 15.8555 0.00162665 18.8469 0.00162665 21.8602C0.00162665 24.8735 -0.0257172 27.8704 0.143814 30.8837C0.313345 34.3837 1.11178 37.4899 3.67116 40.0493C6.236 42.6141 9.33678 43.4071 12.8368 43.5766C15.8555 43.7462 18.8469 43.7188 21.8602 43.7188C24.879 43.7188 27.8704 43.7462 30.8837 43.5766C34.3837 43.4071 37.4899 42.6087 40.0493 40.0493C42.6141 37.4844 43.4071 34.3837 43.5766 30.8837C43.7516 27.8704 43.7188 24.879 43.7188 21.8602ZM21.8547 33.0766C15.6477 33.0766 10.6383 28.0673 10.6383 21.8602C10.6383 15.6532 15.6477 10.6438 21.8547 10.6438C28.0618 10.6438 33.0712 15.6532 33.0712 21.8602C33.0712 28.0673 28.0618 33.0766 21.8547 33.0766ZM33.5305 12.804C32.0813 12.804 30.911 11.6337 30.911 10.1844C30.911 8.73522 32.0813 7.56491 33.5305 7.56491C34.9798 7.56491 36.1501 8.73522 36.1501 10.1844C36.1505 10.5286 36.083 10.8694 35.9515 11.1874C35.82 11.5054 35.6271 11.7944 35.3838 12.0377C35.1404 12.281 34.8515 12.474 34.5335 12.6055C34.2155 12.7369 33.8747 12.8044 33.5305 12.804Z" fill="#F8F8F8"/>
</svg>
