<svg xmlns="http://www.w3.org/2000/svg" width="249" height="58" fill="none" viewBox="0 0 249 58"><path fill="#000" d="M22.2421 33.104C22.0602 33.6132 21.9511 34.1407 21.9147 34.6863C21.8784 35.2319 21.8056 35.7593 21.6965 36.2685C21.3691 38.1964 21.0236 40.106 20.6598 41.9974C20.2961 43.8525 19.8051 45.7076 19.1867 47.5627C18.4228 49.8178 17.2589 51.6002 15.6948 52.9096C14.1307 54.2555 12.2211 55.2194 9.9659 55.8014C9.23842 55.9832 8.58369 56.0742 8.00171 56.0742C6.40125 56.0742 4.98267 55.4376 3.74595 54.1645C3.45496 53.8735 3.14578 53.6007 2.81841 53.3461C2.49105 53.0915 2.18187 52.8187 1.89088 52.5277C1.59989 52.3095 1.38164 52.0912 1.23615 51.873C1.0179 51.582 0.836033 51.291 0.690537 51C0.545041 50.6726 0.563228 50.3453 0.745098 50.0179C0.890594 49.7269 1.14521 49.5814 1.50895 49.5814C1.79994 49.5814 2.12731 49.6542 2.49105 49.7997C2.81841 49.9452 3.18215 50.0179 3.58227 50.0179C3.98238 50.0179 4.36431 49.9452 4.72805 49.7997C5.12816 49.6178 5.52828 49.4177 5.92839 49.1995C7.3106 48.2901 8.47457 47.2171 9.42029 45.9804C10.366 44.7437 11.1481 43.3615 11.7664 41.8338C12.3484 40.4515 12.8394 39.033 13.2396 37.578C13.676 36.123 14.0943 34.6499 14.4945 33.1586C14.64 32.6857 14.6581 32.3947 14.549 32.2856C14.4399 32.1765 14.1489 32.1401 13.676 32.1765L11.5482 32.3402C11.2935 32.3765 11.0571 32.3947 10.8389 32.3947C10.6206 32.3947 10.4569 32.2492 10.3478 31.9582C10.1296 31.4854 10.1841 31.0307 10.5115 30.5942C11.3481 29.4666 12.3666 28.6664 13.5669 28.1935C13.967 28.048 14.3853 27.9571 14.8218 27.9207C15.2583 27.848 15.5857 27.6479 15.8039 27.3205C15.9858 27.0296 16.0949 26.684 16.1313 26.2839C16.204 25.8838 16.2768 25.4837 16.3495 25.0835L17.8227 17.2268C17.8954 16.8994 17.95 16.5902 17.9864 16.2992C18.0591 15.9719 18.1319 15.6627 18.2046 15.3717C18.3501 14.8625 18.1682 14.5897 17.659 14.5533C16.0949 14.2987 14.5672 13.9713 13.0759 13.5712C11.5845 13.1347 10.2387 12.3527 9.03836 11.2251C8.27451 10.4976 7.61978 9.69736 7.07417 8.82438C6.56493 7.95141 6.34669 6.93294 6.41944 5.76897C6.45581 5.36885 6.52856 5.0233 6.63768 4.73231C6.78318 4.40494 7.00142 4.11395 7.29241 3.85933C7.80165 3.45922 8.32907 3.04092 8.87468 2.60443C9.42029 2.16794 9.94771 1.73146 10.4569 1.29497C10.7843 1.07673 11.1662 0.913044 11.6027 0.803921C12.0392 0.6948 12.3666 0.676613 12.5848 0.749359C12.8031 0.785734 13.0395 1.00398 13.2941 1.40409C13.9852 2.56806 14.8946 3.60472 16.0222 4.51406C17.1861 5.42341 18.4047 6.07815 19.6777 6.47826C22.2239 7.24211 24.7701 7.78772 27.3163 8.11509C29.8988 8.40608 32.4996 8.46064 35.1185 8.27877C36.1733 8.20602 37.2282 8.16965 38.283 8.16965C39.3743 8.13328 40.4473 8.06053 41.5021 7.9514C41.8295 7.9514 42.0659 7.96959 42.2114 8.00597C43.1208 8.11509 43.3208 8.5152 42.8116 9.20631C41.975 10.3339 40.9565 11.1341 39.7562 11.607C38.4467 12.1162 37.1191 12.5163 35.7732 12.8073C34.4638 13.0983 33.1179 13.3893 31.7357 13.6803C30.4626 13.9349 29.2077 14.1714 27.971 14.3896C26.7343 14.5715 25.4794 14.6442 24.2063 14.6078C23.588 14.6078 23.2242 14.6806 23.1151 14.8261C23.006 14.9716 22.9878 15.3717 23.0605 16.0264C23.2424 18.2452 23.1878 20.4822 22.8968 22.7374C22.8241 23.283 22.7877 23.8468 22.7877 24.4288C22.7877 24.9744 22.7513 25.52 22.6786 26.0656C22.5695 26.6476 22.8241 26.975 23.4425 27.0477C24.7519 27.1569 26.025 27.466 27.2617 27.9753C27.9892 28.2663 28.4075 28.5573 28.5166 28.8483C28.6257 29.1392 28.5712 29.6485 28.3529 30.376C28.062 31.2126 27.6255 31.94 27.0435 32.5584C26.4979 33.1404 25.8977 33.686 25.243 34.1952C24.9883 34.3771 24.7701 34.4317 24.5882 34.3589C24.4427 34.2498 24.2791 34.1589 24.0972 34.0861C23.8062 33.9042 23.5152 33.7224 23.2242 33.5405C22.9696 33.3223 22.6422 33.1768 22.2421 33.104ZM49.9404 42.8704C49.1766 43.6706 48.3945 44.4163 47.5943 45.1074C46.8305 45.7985 46.012 46.4169 45.1391 46.9625C44.2661 47.5081 43.3386 47.9628 42.3565 48.3265C41.4107 48.6539 40.3559 48.8539 39.1919 48.9267C38.9009 48.9267 38.519 48.9631 38.0461 49.0358C37.6097 49.0722 37.3732 49.254 37.3369 49.5814C37.3369 49.836 37.355 50.0543 37.3914 50.2361C37.4642 50.418 37.646 50.5453 37.937 50.6181C38.4826 50.7999 38.9737 50.9454 39.4102 51.0546C39.883 51.1637 40.2831 51.2182 40.6105 51.2182C40.8288 51.2182 41.047 51.2001 41.2652 51.1637C42.9748 50.9818 44.5753 50.4544 46.0666 49.5814C47.5943 48.7084 48.9583 47.69 50.1587 46.526C50.5952 46.1259 50.9953 45.9258 51.359 45.9258C51.7228 45.9258 52.1411 46.2168 52.6139 46.7988C53.0504 47.3808 53.2687 47.7809 53.2687 47.9991C53.305 48.181 53.3232 48.2901 53.3232 48.3265C53.3232 48.7266 53.0868 49.1813 52.6139 49.6905C51.9592 50.4544 51.2135 51.2001 50.3769 51.9275C49.5767 52.6914 48.7037 53.3643 47.758 53.9463C46.8486 54.5283 45.8847 55.0011 44.8663 55.3649C43.8478 55.7286 42.7929 55.9105 41.7017 55.9105C39.8467 55.9105 38.2644 55.5286 36.9549 54.7647C35.6455 54.0372 34.6088 52.8005 33.8449 51.0546C33.554 50.218 33.2084 49.4177 32.8083 48.6539C32.4446 47.89 31.7898 47.3626 30.8441 47.0716C30.8077 47.0352 30.7713 47.0171 30.735 47.0171L30.6804 46.9625C30.644 46.9261 30.6077 46.9079 30.5713 46.9079C29.4073 46.1441 28.7708 45.5621 28.6617 45.162C28.5889 44.7255 28.5525 44.4527 28.5525 44.3436C28.5525 43.6888 28.8799 42.8704 29.5346 41.8883C30.0439 41.1608 30.6077 40.5425 31.226 40.0332C31.8808 39.4876 32.6446 39.1057 33.5176 38.8875C33.7722 38.8147 33.9541 38.6874 34.0632 38.5055C34.1723 38.2873 34.2814 38.0872 34.3906 37.9054C34.7907 37.1779 35.3545 36.3777 36.0819 35.5047C36.8458 34.5953 37.6824 33.7406 38.5918 32.9403C39.5375 32.1401 40.5014 31.4672 41.4835 30.9216C42.4656 30.376 43.4113 30.1032 44.3207 30.1032C44.7571 30.1032 45.2118 30.2123 45.6847 30.4305C45.8302 30.5033 45.9757 30.5396 46.1212 30.5396C46.2667 30.5396 46.4303 30.576 46.6122 30.6488C48.4309 31.0853 49.7586 31.7764 50.5952 32.7221C51.4318 33.6314 51.9228 35.1228 52.0683 37.1961C52.0683 38.3237 51.9046 39.3421 51.5773 40.2515C51.2863 41.1608 50.7407 42.0338 49.9404 42.8704ZM40.2286 42.3248C40.8106 42.4339 41.3925 42.4885 41.9745 42.4885C42.3383 42.4885 42.8293 42.4521 43.4477 42.3794C44.1024 42.2702 44.8663 42.0884 45.7392 41.8338C46.685 41.5791 47.2669 41.27 47.4852 40.9062C47.7034 40.5425 47.8126 40.1606 47.8126 39.7604C47.8126 39.324 47.7398 38.8147 47.5943 38.2327C47.5216 37.9417 47.4124 37.6871 47.2669 37.4689C47.1578 37.2506 47.0487 37.0142 46.9396 36.7596C46.7941 36.4686 46.6122 36.3231 46.394 36.3231C46.2121 36.3231 46.0302 36.3959 45.8484 36.5413C44.7571 37.3416 43.7387 38.2145 42.7929 39.1603C41.8836 40.0696 41.0288 41.1245 40.2286 42.3248ZM67.4558 44.8892C66.9465 44.5254 66.4009 44.2344 65.8189 44.0162C65.2733 43.798 64.7095 43.5797 64.1276 43.3615C63.291 42.9977 62.5817 42.5249 61.9997 41.9429C61.4541 41.3245 61.0903 40.5425 60.9085 39.5968C60.7993 39.0875 60.6538 38.5783 60.472 38.0691C60.2901 37.5598 60.1628 37.0324 60.09 36.4868C59.9809 35.6502 59.9991 34.8681 60.1446 34.1407C60.3265 33.4132 60.5993 32.7039 60.963 32.0128C61.3631 31.2489 61.8542 30.5033 62.4362 29.7758C63.0545 29.0483 63.7274 28.4118 64.4549 27.8662C65.1824 27.2842 65.9644 26.8295 66.801 26.5021C67.674 26.1384 68.5652 25.9565 69.4745 25.9565C71.1114 25.9565 72.6027 26.5749 73.9485 27.8116C75.0761 28.8664 75.8036 30.0304 76.131 31.3035C76.4583 32.5766 76.5129 33.9406 76.2947 35.3956C76.2219 35.7957 76.131 36.2504 76.0218 36.7596C75.9127 37.2325 75.749 37.6871 75.5308 38.1236C75.3126 38.5237 75.0216 38.8693 74.6578 39.1603C74.3305 39.4513 73.894 39.5968 73.3484 39.5968C72.8028 39.5968 72.2935 39.4149 71.8207 39.0512C71.4933 38.8329 71.275 38.5601 71.1659 38.2327C71.0568 37.6871 70.9295 37.1597 70.784 36.6505C70.6385 36.1049 70.5112 35.5774 70.4021 35.0682C70.2929 34.559 70.2929 34.2134 70.4021 34.0315C70.5476 33.8133 70.8567 33.5951 71.3296 33.3768C71.6206 33.2677 71.8934 33.1586 72.148 33.0494C72.439 32.9039 72.6754 32.6675 72.8573 32.3402C72.5663 32.1947 72.2935 32.1583 72.0389 32.231C71.7843 32.3038 71.5297 32.3765 71.275 32.4493C69.8565 32.8494 68.6561 33.4859 67.674 34.3589C66.6919 35.2319 65.8189 36.2504 65.0551 37.4143C64.8005 37.7781 64.8914 38.0509 65.3279 38.2327C67.6922 39.1785 69.62 40.4879 71.1114 42.1611C72.6391 43.8343 73.512 45.9804 73.7303 48.5993C73.803 49.6542 73.5666 50.5453 73.021 51.2728C72.4754 52.0367 71.7479 52.6732 70.8386 53.1824C70.1838 53.5462 69.4927 53.8008 68.7652 53.9463C68.0741 54.1282 67.3648 54.2555 66.6374 54.3282C65.5825 54.401 64.5277 54.3646 63.4728 54.2191C62.418 54.11 61.3813 53.8735 60.3629 53.5098C59.7445 53.2552 59.1989 52.9278 58.726 52.5277C58.2532 52.1276 57.8894 51.6002 57.6348 50.9454C57.4529 50.4362 57.2711 49.9633 57.0892 49.5269C56.9073 49.054 56.7255 48.5629 56.5436 48.0537C56.3253 47.4354 56.2526 46.7624 56.3253 46.035C56.3981 45.4166 56.7073 45.1984 57.2529 45.3802C57.653 45.4893 58.0167 45.653 58.3441 45.8713C58.7442 46.0895 59.2171 46.2532 59.7627 46.3623C60.3447 46.4714 60.9448 46.526 61.5632 46.526C62.6908 46.526 63.8184 46.3805 64.946 46.0895C66.0736 45.7985 66.9102 45.3984 67.4558 44.8892ZM90.6759 26.9932C89.9484 26.9204 89.2391 26.9022 88.548 26.9386C87.8933 26.9386 87.2385 26.9022 86.5838 26.8295C85.8563 26.7204 85.147 26.5931 84.4559 26.4476C83.7648 26.2657 83.0737 26.0475 82.3826 25.7928C81.5824 25.4655 80.9277 25.029 80.4184 24.4834C79.9092 23.9378 79.5454 23.2467 79.3272 22.4101C79.1453 21.8281 79.1817 21.3007 79.4363 20.8278C79.7273 20.3549 80.0001 19.8821 80.2547 19.4092C80.5457 18.9363 80.8731 18.4999 81.2368 18.0997C81.6733 17.5178 82.0916 17.1904 82.4917 17.1176C82.8919 17.0449 83.4011 17.2086 84.0194 17.6087C85.2925 18.3725 86.6202 18.9545 88.0024 19.3546C89.3846 19.7548 90.8032 20.0639 92.2582 20.2822C92.8038 20.3913 93.1675 20.1912 93.3494 19.682C93.5676 19.1 93.7859 18.518 94.0041 17.9361C94.2223 17.3541 94.477 16.8085 94.768 16.2992C94.9498 15.9719 95.1317 15.6445 95.3136 15.3171C95.5318 14.9898 95.8592 14.8443 96.2957 14.8806C96.6958 14.917 96.9504 15.1171 97.0595 15.4808C97.1686 15.8082 97.2959 16.1174 97.4414 16.4084C97.6233 16.7721 97.7142 17.154 97.7142 17.5541C97.7506 17.9179 97.7506 18.2998 97.7142 18.6999C97.7142 18.8818 97.7142 19.0455 97.7142 19.191C97.7142 19.3365 97.6961 19.482 97.6597 19.6275C97.6233 20.2094 97.8779 20.4459 98.4235 20.3367C99.5148 20.1912 100.588 20.0458 101.643 19.9003C102.734 19.7548 103.807 19.5365 104.862 19.2455C105.298 19.1728 105.717 19.0818 106.117 18.9727C106.517 18.8272 106.917 18.6635 107.317 18.4817C107.681 18.3362 107.935 18.3362 108.081 18.4817C108.226 18.6272 108.263 18.8818 108.19 19.2455C107.935 20.1185 107.481 20.846 106.826 21.428C106.28 21.9372 105.698 22.3919 105.08 22.792C104.498 23.1557 103.861 23.4831 103.17 23.7741C102.261 24.1378 101.352 24.4834 100.442 24.8107C99.5329 25.1381 98.6054 25.4109 97.6597 25.6292C97.005 25.7747 96.623 26.193 96.5139 26.8841C95.8592 30.3032 95.0953 33.686 94.2223 37.0324C93.3494 40.3424 92.3127 43.6343 91.1124 46.9079C90.6759 48.0719 90.1666 49.1995 89.5847 50.2907C89.0027 51.3819 88.2388 52.3822 87.2931 53.2916C86.02 54.5646 84.5105 55.3285 82.7645 55.5831C82.1826 55.6559 81.6006 55.6922 81.0186 55.6922C80.4366 55.7286 79.8546 55.7286 79.2726 55.6922C78.1451 55.6559 77.2175 55.1648 76.49 54.2191C76.3445 54.0372 76.199 53.8372 76.0535 53.6189C75.9444 53.4371 75.8353 53.2552 75.7262 53.0733C75.3988 52.6005 75.2533 52.2185 75.2897 51.9275C75.3261 51.6365 75.5807 51.3456 76.0535 51.0546C76.3082 50.8727 76.5628 50.7272 76.8174 50.6181C77.072 50.509 77.3448 50.3816 77.6358 50.2361C78.7998 49.7633 79.8364 49.1449 80.7458 48.3811C81.6551 47.6172 82.4736 46.7079 83.201 45.653C83.9285 44.5618 84.5651 43.4342 85.1107 42.2702C85.6563 41.1063 86.1655 39.9059 86.6384 38.6692C87.2931 36.8505 87.9296 35.05 88.548 33.2677C89.2027 31.4854 89.8575 29.6667 90.5122 27.8116C90.5849 27.7025 90.6213 27.5934 90.6213 27.4842C90.6213 27.3387 90.6395 27.175 90.6759 26.9932ZM110.23 48.3811C109.83 48.8903 109.467 49.345 109.139 49.7451C108.848 50.1088 108.557 50.4726 108.266 50.8363C107.357 52.0367 106.357 53.1461 105.265 54.1645C104.683 54.6738 104.12 55.0193 103.574 55.2012C103.065 55.4194 102.537 55.5286 101.992 55.5286C101.773 55.5286 101.537 55.5104 101.282 55.474C100.337 55.3649 99.5729 54.8556 98.9909 53.9463C98.8818 53.7644 98.7545 53.5644 98.609 53.3461L97.9542 52.2549C97.8451 52.073 97.7178 51.873 97.5723 51.6547C97.0267 50.6726 96.7357 49.8724 96.6993 49.254C96.663 48.5993 96.6448 48.1628 96.6448 47.9446C96.6448 47.108 96.7539 46.2714 96.9721 45.4348C97.5905 43.2523 98.4635 41.2336 99.5911 39.3785C100.755 37.5234 102.246 35.8866 104.065 34.468C104.356 34.2498 104.629 34.0679 104.883 33.9224C105.138 33.7769 105.411 33.6314 105.702 33.4859C106.575 33.0494 107.339 32.8312 107.993 32.8312C108.321 32.8312 108.757 32.9403 109.303 33.1586C109.849 33.3404 110.503 33.886 111.267 34.7954C111.813 35.3774 112.231 36.0503 112.522 36.8142C112.813 36.5232 112.995 36.2322 113.068 35.9412C113.14 35.6502 113.231 35.3774 113.34 35.1228C113.631 34.5044 113.904 33.9224 114.159 33.3768C114.413 32.7948 114.741 32.2492 115.141 31.74C115.396 31.4126 115.559 31.2307 115.632 31.1944C115.741 31.158 115.814 31.1398 115.85 31.1398C115.996 31.1398 116.196 31.2489 116.45 31.4672C117.032 31.9037 117.451 32.3947 117.705 32.9403C117.996 33.4496 118.142 33.9952 118.142 34.5772C118.142 34.6863 118.142 34.8136 118.142 34.9591C118.069 36.0139 117.942 37.0688 117.76 38.1236C117.578 39.1785 117.396 40.2333 117.214 41.2881C116.923 42.8886 116.723 44.3436 116.614 45.653C116.505 46.9261 116.45 48.0719 116.45 49.0904C116.45 49.7087 116.469 50.3089 116.505 50.8909C116.541 51.4729 116.596 52.0367 116.669 52.5823C116.778 53.1643 117.032 53.7099 117.432 54.2191C117.578 54.4373 117.651 54.6192 117.651 54.7647C117.651 54.8375 117.614 54.9466 117.542 55.0921C117.505 55.2376 117.342 55.3831 117.051 55.5286C116.687 55.6741 116.396 55.7468 116.178 55.7468C115.996 55.7832 115.868 55.8014 115.796 55.8014C115.505 55.8014 115.214 55.7104 114.923 55.5286C114.086 54.9829 113.286 54.401 112.522 53.7826C111.795 53.1643 111.231 52.3458 110.831 51.3274C110.649 50.9273 110.521 50.4908 110.449 50.0179C110.376 49.545 110.303 48.9994 110.23 48.3811ZM103.356 48.8176C104.192 48.3083 104.938 47.7263 105.593 47.0716C106.247 46.4169 106.866 45.744 107.448 45.0529C108.03 44.3254 108.594 43.5979 109.139 42.8704C109.721 42.1429 110.321 41.4518 110.94 40.7971C111.049 40.688 111.103 40.5061 111.103 40.2515C111.103 40.1424 111.067 39.9423 110.994 39.6513C110.958 39.3603 110.849 39.1239 110.667 38.942C110.485 38.7602 110.303 38.6692 110.121 38.6692C110.049 38.6692 109.921 38.7238 109.739 38.8329C109.594 38.9057 109.412 38.9966 109.194 39.1057C109.048 39.1785 108.921 39.2694 108.812 39.3785C108.703 39.4876 108.575 39.5968 108.43 39.7059C107.812 40.2151 107.266 40.7789 106.793 41.3973C106.32 42.0156 105.884 42.6704 105.484 43.3615C105.011 44.1981 104.574 45.071 104.174 45.9804C103.81 46.8534 103.538 47.7991 103.356 48.8176ZM143.581 44.8892C143.072 44.5254 142.526 44.2344 141.944 44.0162C141.398 43.798 140.835 43.5797 140.253 43.3615C139.416 42.9977 138.707 42.5249 138.125 41.9429C137.579 41.3245 137.215 40.5425 137.033 39.5968C136.924 39.0875 136.779 38.5783 136.597 38.0691C136.415 37.5598 136.288 37.0324 136.215 36.4868C136.106 35.6502 136.124 34.8681 136.27 34.1407C136.451 33.4132 136.724 32.7039 137.088 32.0128C137.488 31.2489 137.979 30.5033 138.561 29.7758C139.18 29.0483 139.852 28.4118 140.58 27.8662C141.307 27.2842 142.089 26.8295 142.926 26.5021C143.799 26.1384 144.69 25.9565 145.6 25.9565C147.236 25.9565 148.728 26.5749 150.074 27.8116C151.201 28.8664 151.929 30.0304 152.256 31.3035C152.583 32.5766 152.638 33.9406 152.42 35.3956C152.347 35.7957 152.256 36.2504 152.147 36.7596C152.038 37.2325 151.874 37.6871 151.656 38.1236C151.438 38.5237 151.147 38.8693 150.783 39.1603C150.455 39.4513 150.019 39.5968 149.473 39.5968C148.928 39.5968 148.419 39.4149 147.946 39.0512C147.618 38.8329 147.4 38.5601 147.291 38.2327C147.182 37.6871 147.054 37.1597 146.909 36.6505C146.763 36.1049 146.636 35.5774 146.527 35.0682C146.418 34.559 146.418 34.2134 146.527 34.0315C146.673 33.8133 146.982 33.5951 147.455 33.3768C147.746 33.2677 148.018 33.1586 148.273 33.0494C148.564 32.9039 148.8 32.6675 148.982 32.3402C148.691 32.1947 148.419 32.1583 148.164 32.231C147.909 32.3038 147.655 32.3765 147.4 32.4493C145.981 32.8494 144.781 33.4859 143.799 34.3589C142.817 35.2319 141.944 36.2504 141.18 37.4143C140.925 37.7781 141.016 38.0509 141.453 38.2327C143.817 39.1785 145.745 40.4879 147.236 42.1611C148.764 43.8343 149.637 45.9804 149.855 48.5993C149.928 49.6542 149.692 50.5453 149.146 51.2728C148.6 52.0367 147.873 52.6732 146.964 53.1824C146.309 53.5462 145.618 53.8008 144.89 53.9463C144.199 54.1282 143.49 54.2555 142.762 54.3282C141.708 54.401 140.653 54.3646 139.598 54.2191C138.543 54.11 137.506 53.8735 136.488 53.5098C135.869 53.2552 135.324 52.9278 134.851 52.5277C134.378 52.1276 134.014 51.6002 133.76 50.9454C133.578 50.4362 133.396 49.9633 133.214 49.5269C133.032 49.054 132.85 48.5629 132.669 48.0537C132.45 47.4354 132.378 46.7624 132.45 46.035C132.523 45.4166 132.832 45.1984 133.378 45.3802C133.778 45.4893 134.142 45.653 134.469 45.8713C134.869 46.0895 135.342 46.2532 135.888 46.3623C136.47 46.4714 137.07 46.526 137.688 46.526C138.816 46.526 139.943 46.3805 141.071 46.0895C142.199 45.7985 143.035 45.3984 143.581 44.8892ZM167.09 50.3998C166.726 50.8363 166.38 51.2546 166.053 51.6547C165.762 52.0912 165.416 52.4913 165.016 52.8551C163.961 53.8008 162.779 54.2737 161.47 54.2737C161.106 54.2737 160.742 54.2373 160.379 54.1645C160.051 54.0918 159.687 54.0009 159.287 53.8917C158.705 53.7462 158.16 53.3643 157.651 52.746C157.25 52.164 156.85 51.582 156.45 51C156.05 50.418 155.668 49.8178 155.304 49.1995C154.613 48.1083 154.25 46.9807 154.213 45.8167C154.177 44.6164 154.268 43.416 154.486 42.2157C154.777 40.6152 155.213 39.0875 155.795 37.6326C156.414 36.1412 157.087 34.7045 157.814 33.3223C158.505 32.0128 159.124 31.3581 159.669 31.3581C159.96 31.3581 160.269 31.5217 160.597 31.8491C160.924 32.1765 161.306 32.613 161.743 33.1586C162.688 34.3589 162.961 35.7593 162.561 37.3598C162.234 38.6692 161.906 39.9787 161.579 41.2881C161.252 42.5976 160.961 43.9253 160.706 45.2711C160.524 46.3623 160.488 47.399 160.597 48.3811C160.779 48.4902 160.924 48.5084 161.033 48.4356C161.179 48.3629 161.324 48.2901 161.47 48.2174C162.743 47.5627 163.834 46.6897 164.743 45.5985C165.689 44.3981 166.599 43.1796 167.471 41.9429C168.381 40.6698 169.181 39.3421 169.872 37.9599C170.018 37.7053 170.29 37.2325 170.691 36.5413C171.091 35.8139 171.527 35.0864 172 34.3589C172.509 33.5951 173 32.9221 173.473 32.3402C173.982 31.7582 174.383 31.4672 174.674 31.4672C174.819 31.4672 175.074 31.649 175.437 32.0128C175.947 32.522 176.31 33.0858 176.529 33.7042C176.747 34.3225 176.765 34.9955 176.583 35.7229C176.183 37.3598 175.765 38.9602 175.328 40.5243C174.892 42.0884 174.473 43.6888 174.073 45.3257C173.491 47.399 173.182 49.4541 173.146 51.491C173.146 52.0367 173.164 52.5641 173.2 53.0733C173.273 53.6189 173.455 54.1463 173.746 54.6556C174.11 55.2376 173.946 55.6195 173.255 55.8014C173.073 55.8741 172.873 55.9287 172.655 55.965C172.473 56.0014 172.291 56.0196 172.109 56.0196C171.6 56.0196 171.145 55.8196 170.745 55.4194C170.018 54.7647 169.327 54.0918 168.672 53.4007C168.017 52.7096 167.581 51.8366 167.362 50.7818C167.326 50.709 167.29 50.6544 167.253 50.6181C167.217 50.5453 167.162 50.4726 167.09 50.3998ZM188.393 44.8892C187.884 44.5254 187.338 44.2344 186.756 44.0162C186.211 43.798 185.647 43.5797 185.065 43.3615C184.228 42.9977 183.519 42.5249 182.937 41.9429C182.392 41.3245 182.028 40.5425 181.846 39.5968C181.737 39.0875 181.591 38.5783 181.409 38.0691C181.228 37.5598 181.1 37.0324 181.028 36.4868C180.918 35.6502 180.937 34.8681 181.082 34.1407C181.264 33.4132 181.537 32.7039 181.901 32.0128C182.301 31.2489 182.792 30.5033 183.374 29.7758C183.992 29.0483 184.665 28.4118 185.392 27.8662C186.12 27.2842 186.902 26.8295 187.739 26.5021C188.612 26.1384 189.503 25.9565 190.412 25.9565C192.049 25.9565 193.54 26.5749 194.886 27.8116C196.014 28.8664 196.741 30.0304 197.068 31.3035C197.396 32.5766 197.45 33.9406 197.232 35.3956C197.159 35.7957 197.068 36.2504 196.959 36.7596C196.85 37.2325 196.687 37.6871 196.468 38.1236C196.25 38.5237 195.959 38.8693 195.595 39.1603C195.268 39.4513 194.831 39.5968 194.286 39.5968C193.74 39.5968 193.231 39.4149 192.758 39.0512C192.431 38.8329 192.213 38.5601 192.103 38.2327C191.994 37.6871 191.867 37.1597 191.721 36.6505C191.576 36.1049 191.449 35.5774 191.34 35.0682C191.23 34.559 191.23 34.2134 191.34 34.0315C191.485 33.8133 191.794 33.5951 192.267 33.3768C192.558 33.2677 192.831 33.1586 193.086 33.0494C193.377 32.9039 193.613 32.6675 193.795 32.3402C193.504 32.1947 193.231 32.1583 192.976 32.231C192.722 32.3038 192.467 32.3765 192.213 32.4493C190.794 32.8494 189.594 33.4859 188.612 34.3589C187.629 35.2319 186.756 36.2504 185.993 37.4143C185.738 37.7781 185.829 38.0509 186.265 38.2327C188.63 39.1785 190.558 40.4879 192.049 42.1611C193.577 43.8343 194.45 45.9804 194.668 48.5993C194.741 49.6542 194.504 50.5453 193.958 51.2728C193.413 52.0367 192.685 52.6732 191.776 53.1824C191.121 53.5462 190.43 53.8008 189.703 53.9463C189.012 54.1282 188.302 54.2555 187.575 54.3282C186.52 54.401 185.465 54.3646 184.41 54.2191C183.355 54.11 182.319 53.8735 181.3 53.5098C180.682 53.2552 180.136 52.9278 179.664 52.5277C179.191 52.1276 178.827 51.6002 178.572 50.9454C178.39 50.4362 178.209 49.9633 178.027 49.5269C177.845 49.054 177.663 48.5629 177.481 48.0537C177.263 47.4354 177.19 46.7624 177.263 46.035C177.336 45.4166 177.645 45.1984 178.19 45.3802C178.59 45.4893 178.954 45.653 179.282 45.8713C179.682 46.0895 180.155 46.2532 180.7 46.3623C181.282 46.4714 181.882 46.526 182.501 46.526C183.628 46.526 184.756 46.3805 185.883 46.0895C187.011 45.7985 187.848 45.3984 188.393 44.8892ZM216.09 37.3052C216.418 37.0142 216.727 36.7232 217.018 36.4322C217.309 36.1049 217.618 35.7957 217.945 35.5047C218.891 34.559 219.982 33.7769 221.219 33.1586C222.492 32.5038 223.82 32.1765 225.202 32.1765C225.966 32.1765 226.657 32.3765 227.275 32.7766C227.93 33.1404 228.585 33.7951 229.24 34.7408C230.149 36.0139 230.731 37.3779 230.986 38.8329C231.24 40.2515 231.113 41.7246 230.604 43.2523C230.204 44.4891 229.749 45.7076 229.24 46.9079C228.73 48.0719 228.239 49.254 227.766 50.4544C227.475 51.1819 227.203 51.9275 226.948 52.6914C226.73 53.4552 226.584 54.2373 226.512 55.0375C226.512 55.2194 226.493 55.3649 226.457 55.474C226.457 55.6195 226.475 55.7832 226.512 55.965C226.584 56.4743 226.512 56.8198 226.293 57.0017C226.111 57.1836 225.766 57.2563 225.257 57.2199C224.638 57.1836 224.075 57.0381 223.565 56.7835C223.092 56.5652 222.747 56.1287 222.529 55.474C222.347 54.9648 222.128 54.4737 221.874 54.0009C221.619 53.5644 221.401 53.0915 221.219 52.5823C220.746 51.4547 220.637 50.3635 220.892 49.3086C221.146 48.2538 221.528 47.2171 222.038 46.1986L226.13 38.8329C226.239 38.651 226.33 38.451 226.402 38.2327C226.512 38.0145 226.621 37.7781 226.73 37.5234C226.439 37.4143 226.166 37.3779 225.911 37.4143C225.657 37.4507 225.384 37.5053 225.093 37.578C223.929 37.8326 222.638 38.5055 221.219 39.5968C219.837 40.6516 218.473 41.8701 217.127 43.2523C215.781 44.6346 214.526 46.0713 213.362 47.5627C212.198 49.054 211.271 50.3453 210.58 51.4365C208.652 54.4192 205.942 55.8559 202.45 55.7468C202.159 55.7104 201.85 55.6922 201.523 55.6922C201.232 55.7286 200.941 55.7286 200.65 55.6922C200.031 55.5831 199.504 55.3467 199.067 54.9829C198.667 54.6556 198.267 54.2373 197.867 53.728C197.467 53.2552 197.212 52.8551 197.103 52.5277C196.958 52.2367 196.94 51.9639 197.049 51.7093C197.121 51.491 197.321 51.291 197.649 51.1091C197.94 50.9273 198.304 50.7454 198.74 50.5635C199.868 50.0179 200.832 49.4723 201.632 48.9267C202.468 48.3447 203.196 47.7082 203.814 47.0171C204.469 46.2896 205.051 45.4893 205.56 44.6164C206.106 43.7434 206.633 42.7249 207.142 41.561C207.979 39.5968 208.743 37.6144 209.434 35.6138C210.161 33.6132 210.889 31.6127 211.616 29.6121C212.308 27.6115 212.999 25.6292 213.69 23.665C214.381 21.6644 215.09 19.6638 215.818 17.6633C215.89 17.4814 215.999 17.245 216.145 16.954C216.29 16.6266 216.454 16.3174 216.636 16.0264C216.818 15.6991 217.018 15.4263 217.236 15.208C217.454 14.9534 217.673 14.8261 217.891 14.8261C218.109 14.8261 218.364 15.0261 218.655 15.4263C219.273 16.4084 219.564 17.445 219.528 18.5362C219.237 21.628 218.764 24.6834 218.109 27.7025C217.454 30.7215 216.745 33.7224 215.981 36.705C215.981 36.7778 215.963 36.8687 215.927 36.9778C215.927 37.0506 215.981 37.1597 216.09 37.3052ZM241.14 29.4484C241.322 28.2481 241.613 27.0477 242.013 25.8474C242.45 24.6107 243.068 23.4649 243.868 22.4101C244.269 21.9008 244.578 21.6462 244.796 21.6462C244.796 21.6462 244.851 21.6644 244.96 21.7008C245.105 21.7008 245.396 21.919 245.833 22.3555C246.378 22.9739 246.851 23.6104 247.251 24.2651C247.688 24.8835 247.961 25.611 248.07 26.4476C248.106 26.6658 248.124 26.8841 248.124 27.1023C248.124 27.3205 248.033 27.5206 247.851 27.7025C246.978 28.5754 246.251 29.5394 245.669 30.5942C245.123 31.6127 244.65 32.7039 244.25 33.8679C244.178 34.0497 244.105 34.2316 244.032 34.4135C243.996 34.5953 243.868 34.6863 243.65 34.6863C243.614 34.6863 243.577 34.6863 243.541 34.6863C242.959 34.6863 242.559 34.4498 242.341 33.977C242.013 33.2859 241.741 32.5948 241.522 31.9037C241.304 31.1762 241.177 30.3578 241.14 29.4484ZM241.959 37.7417C242.068 38.1782 242.122 38.6329 242.122 39.1057C242.122 39.3603 242.086 39.7423 242.013 40.2515C241.977 40.7607 241.922 41.3973 241.85 42.1611C241.595 44.1253 241.25 46.035 240.813 47.89C240.377 49.7451 239.74 51.5638 238.903 53.3461C238.685 53.7826 238.431 54.2555 238.14 54.7647C237.412 55.7104 236.83 56.2379 236.394 56.347C235.993 56.4925 235.648 56.5652 235.357 56.5652C234.811 56.5652 234.138 56.4379 233.338 56.1833C232.829 56.0014 232.465 55.6741 232.247 55.2012C232.029 54.7283 231.81 54.2555 231.592 53.7826C231.41 53.3461 231.228 52.8733 231.047 52.364C230.938 52.0367 230.883 51.7275 230.883 51.4365C230.883 51.291 230.919 51.1091 230.992 50.8909C231.065 50.6363 231.356 50.3635 231.865 50.0725C232.447 49.7087 232.92 49.2722 233.284 48.763C233.647 48.2174 233.993 47.6536 234.32 47.0716C235.266 45.2893 236.084 43.4888 236.776 41.6701C237.503 39.815 238.194 37.9236 238.849 35.9957C238.922 35.7047 238.994 35.4319 239.067 35.1773C239.176 34.9227 239.304 34.6499 239.449 34.3589C239.74 33.7042 239.94 33.3768 240.049 33.3768C240.195 33.3404 240.267 33.3223 240.267 33.3223C240.522 33.3223 240.849 33.6314 241.25 34.2498C241.722 34.9409 241.959 35.8684 241.959 37.0324C241.959 37.2506 241.959 37.4871 241.959 37.7417Z"/></svg>