<svg width="251" height="79" viewBox="0 0 251 79" fill="none" xmlns="http://www.w3.org/2000/svg">
<path d="M22.1142 30.7945C21.8596 31.7403 21.605 32.6678 21.3504 33.5772C21.1321 34.4501 20.8775 35.3413 20.5865 36.2506C20.1137 37.8511 19.6044 39.4152 19.0588 40.9429C18.5132 42.4342 17.8585 43.9074 17.0946 45.3623C16.4399 46.5263 15.6942 47.6175 14.8576 48.636C14.021 49.6544 13.0753 50.582 12.0205 51.4186C10.3473 52.728 8.43762 53.3828 6.29156 53.3828C6.18244 53.3828 6.07332 53.3828 5.96419 53.3828C5.01847 53.31 4.21824 53.0009 3.56351 52.4552C3.05428 52.0188 2.5996 51.5459 2.19949 51.0367C1.79937 50.5274 1.39926 50 0.999147 49.4544C0.708156 49.0543 0.56266 48.6905 0.56266 48.3632C0.56266 47.9267 0.908213 47.5811 1.59932 47.3265C3.78176 46.4899 5.63683 45.3259 7.16454 43.8346C8.69224 42.3069 10.0381 40.561 11.202 38.5968C12.366 36.6326 13.3481 34.6138 14.1483 32.5405C14.9486 30.4308 15.7124 28.2847 16.4399 26.1023C16.9128 24.611 17.3492 23.1378 17.7494 21.6829C18.1858 20.2279 18.586 18.7366 18.9497 17.2089C19.0224 16.7724 19.0588 16.3541 19.0588 15.954C19.0588 15.8085 19.0588 15.6812 19.0588 15.572C18.9497 14.1171 18.877 13.0077 18.8406 12.2438C18.8406 11.48 18.8406 11.0617 18.8406 10.9889C18.8406 9.64308 18.9861 8.27906 19.2771 6.89685C19.4589 6.02387 19.6408 5.35095 19.8227 4.87809C20.0409 4.40523 20.3137 4.07786 20.6411 3.89599C21.0048 3.71412 21.4413 3.62319 21.9506 3.62319C22.4962 3.62319 23.1691 3.67775 23.9693 3.78687C24.4785 3.85962 24.9514 4.05968 25.3879 4.38704C25.8608 4.67803 26.2972 4.98721 26.6974 5.31458C26.9883 5.53282 27.1338 5.75107 27.1338 5.96931C27.1702 6.15118 27.1884 6.29668 27.1884 6.4058C27.1884 6.62404 27.1702 6.84228 27.1338 7.06053C27.0975 7.56976 27.0247 8.079 26.9156 8.58823L26.8065 9.62489C26.7337 10.1705 26.661 10.6979 26.5882 11.2072C26.5519 12.0074 26.5337 12.8076 26.5337 13.6078C26.5337 14.5536 26.57 15.6812 26.6428 16.9906C26.7519 18.3001 26.9338 19.8096 27.1884 21.5192C27.5521 23.9199 28.025 26.2842 28.607 28.6121C29.189 30.9037 29.8983 33.1952 30.7349 35.4868C30.8076 35.6687 30.8622 35.8687 30.8986 36.087C30.9713 36.2688 31.0986 36.4507 31.2805 36.6326C31.426 36.4871 31.4987 36.3598 31.4987 36.2506C31.4987 36.2143 31.4805 36.1597 31.4442 36.087C31.4442 36.0142 31.4442 35.9051 31.4442 35.7596C31.626 31.5766 32.1535 27.5209 33.0264 23.5925C33.9358 19.6277 35.2634 15.7357 37.0094 11.9165C37.8096 10.2433 38.719 8.66098 39.7374 7.16965C40.7559 5.64194 41.9017 4.20517 43.1748 2.85933C44.0114 1.98636 44.9571 1.27707 46.0119 0.731457C46.3029 0.585962 46.5939 0.513214 46.8849 0.513214C47.2123 0.513214 47.5578 0.622336 47.9216 0.84058C48.8309 1.42256 49.5038 2.13186 49.9403 2.96846C50.3768 3.76868 50.686 4.67803 50.8679 5.6965C50.8679 5.76925 50.8679 5.842 50.8679 5.91475C50.8679 6.42398 50.6314 6.86047 50.1586 7.22421C47.6851 9.40665 45.6846 11.8437 44.1569 14.5354C42.6655 17.2271 41.3561 20.0824 40.2285 23.1014C39.3919 25.3566 38.7553 27.6482 38.3188 29.9761C37.9187 32.2677 37.6277 34.6138 37.4459 37.0145C37.3731 38.033 37.3004 38.9059 37.2276 39.6334C37.1549 40.3609 37.1185 40.9611 37.1185 41.4339C37.1185 41.9795 37.1549 42.5433 37.2276 43.1253C37.4095 44.5803 37.555 46.0534 37.6641 47.5448C37.7732 48.9997 38.137 50.4183 38.7553 51.8005C38.8281 51.946 38.8645 52.0733 38.8645 52.1824C38.8645 52.2916 38.8099 52.3825 38.7008 52.4552C38.5916 52.528 38.428 52.5826 38.2097 52.6189C37.9187 52.6189 37.6277 52.5826 37.3367 52.5098C37.0458 52.4371 36.8093 52.2734 36.6275 52.0188C36.3001 51.6186 35.9545 51.4004 35.5908 51.364C34.4268 51.1822 33.4447 50.7457 32.6445 50.0546C31.8806 49.3635 31.1714 48.5996 30.5166 47.763C29.1344 45.9443 27.9341 44.0347 26.9156 42.0341C25.9335 40.0335 25.0242 37.9966 24.1876 35.9233C23.8602 35.0867 23.5328 34.2501 23.2055 33.4135C22.9145 32.5405 22.6235 31.6675 22.3325 30.7945H22.1142ZM51.5779 28.4484C51.7598 27.2481 52.0508 26.0477 52.4509 24.8474C52.8874 23.6107 53.5057 22.4649 54.3059 21.4101C54.7061 20.9008 55.0152 20.6462 55.2335 20.6462C55.2335 20.6462 55.288 20.6644 55.3972 20.7008C55.5427 20.7008 55.8337 20.919 56.2701 21.3555C56.8158 21.9739 57.2886 22.6104 57.6887 23.2651C58.1252 23.8835 58.398 24.611 58.5071 25.4476C58.5435 25.6658 58.5617 25.8841 58.5617 26.1023C58.5617 26.3205 58.4708 26.5206 58.2889 26.7025C57.4159 27.5754 56.6884 28.5394 56.1065 29.5942C55.5608 30.6127 55.088 31.7039 54.6879 32.8679C54.6151 33.0497 54.5424 33.2316 54.4696 33.4135C54.4333 33.5953 54.3059 33.6863 54.0877 33.6863C54.0513 33.6863 54.015 33.6863 53.9786 33.6863C53.3966 33.6863 52.9965 33.4498 52.7782 32.977C52.4509 32.2859 52.1781 31.5948 51.9598 30.9037C51.7416 30.1762 51.6143 29.3578 51.5779 28.4484ZM52.3963 36.7417C52.5054 37.1782 52.56 37.6329 52.56 38.1057C52.56 38.3603 52.5236 38.7423 52.4509 39.2515C52.4145 39.7607 52.3599 40.3973 52.2872 41.1611C52.0326 43.1253 51.687 45.035 51.2505 46.89C50.814 48.7451 50.1775 50.5638 49.3409 52.3461C49.1227 52.7826 48.868 53.2555 48.577 53.7647C47.8496 54.7104 47.2676 55.2379 46.8311 55.347C46.431 55.4925 46.0854 55.5652 45.7944 55.5652C45.2488 55.5652 44.5759 55.4379 43.7757 55.1833C43.2664 55.0014 42.9027 54.6741 42.6845 54.2012C42.4662 53.7283 42.248 53.2555 42.0297 52.7826C41.8479 52.3461 41.666 51.8733 41.4841 51.364C41.375 51.0367 41.3204 50.7275 41.3204 50.4365C41.3204 50.291 41.3568 50.1091 41.4296 49.8909C41.5023 49.6363 41.7933 49.3635 42.3025 49.0725C42.8845 48.7087 43.3574 48.2722 43.7211 47.763C44.0849 47.2174 44.4304 46.6536 44.7578 46.0716C45.7035 44.2893 46.5219 42.4888 47.213 40.6701C47.9405 38.815 48.6316 36.9236 49.2863 34.9957C49.3591 34.7047 49.4318 34.4319 49.5046 34.1773C49.6137 33.9227 49.741 33.6499 49.8865 33.3589C50.1775 32.7042 50.3776 32.3768 50.4867 32.3768C50.6322 32.3404 50.7049 32.3223 50.7049 32.3223C50.9595 32.3223 51.2869 32.6314 51.687 33.2498C52.1599 33.9409 52.3963 34.8684 52.3963 36.0324C52.3963 36.2506 52.3963 36.4871 52.3963 36.7417ZM65.9737 38.6513C66.5557 37.9966 67.1013 37.3237 67.6105 36.6326C68.1197 35.9415 68.6654 35.2867 69.2473 34.6684C69.502 34.3774 69.8111 34.0682 70.1749 33.7408C70.5386 33.3771 70.9387 33.0497 71.3752 32.7587C71.8117 32.4677 72.2482 32.2131 72.6847 31.9949C73.1212 31.7766 73.5395 31.6675 73.9396 31.6675C74.5943 31.6675 75.2309 31.9403 75.8492 32.4859C76.4676 32.9952 76.9222 33.5226 77.2132 34.0682C77.868 35.2685 78.3408 36.5053 78.6318 37.7783C78.9592 39.0151 79.0683 40.3427 78.9592 41.7613C78.7773 43.5072 78.4863 45.235 78.0862 46.9446C77.7225 48.6178 77.3405 50.3274 76.9404 52.0733C76.8313 52.6189 76.6494 52.9645 76.3948 53.11C76.1766 53.2918 75.7765 53.3646 75.1945 53.3282C74.5761 53.2918 74.0305 53.1463 73.5577 52.8917C73.1212 52.6735 72.7574 52.2552 72.4664 51.6368C72.2846 51.2003 72.0663 50.782 71.8117 50.3819C71.5935 49.9818 71.357 49.5817 71.1024 49.1816C70.2294 47.8357 70.1749 46.4172 70.9387 44.9258C71.448 43.9074 71.939 42.8889 72.4119 41.8704C72.8847 40.8156 73.3212 39.7607 73.7213 38.7059C73.9032 38.3058 74.0669 37.9057 74.2124 37.5055C74.3579 37.1054 74.4488 36.6326 74.4852 36.087C73.3576 36.5962 72.2846 37.3237 71.2661 38.2694C70.284 39.2151 69.3746 40.27 68.538 41.4339C67.7014 42.5615 66.9194 43.7437 66.1919 44.9804C65.5008 46.1807 64.8643 47.2901 64.2823 48.3086C63.9549 48.927 63.6639 49.5817 63.4093 50.2728C63.1911 50.9639 62.9365 51.655 62.6455 52.3461C62.3181 53.1827 61.827 53.9284 61.1723 54.5831C60.5176 55.2379 59.6992 55.5652 58.7171 55.5652C58.1351 55.5652 57.6259 55.4197 57.1894 55.1287C56.7529 54.8741 56.371 54.5467 56.0436 54.1466C55.7162 53.7465 55.4434 53.2918 55.2252 52.7826C55.0433 52.2734 54.8796 51.7641 54.7341 51.2549C54.5523 50.7457 54.5159 50.3274 54.625 50C54.7705 49.6726 55.0797 49.3635 55.5525 49.0725C56.28 48.636 57.0075 47.7994 57.735 46.5627C58.4625 45.3259 59.1354 43.9983 59.7537 42.5797C60.3721 41.1248 60.9177 39.7062 61.3906 38.324C61.8998 36.9054 62.2817 35.796 62.5363 34.9957C62.6455 34.7047 62.7364 34.4319 62.8091 34.1773C62.9183 33.9227 63.0456 33.6499 63.1911 33.3589C63.4821 32.7042 63.7549 32.3768 64.0095 32.3768C64.2277 32.3768 64.5551 32.6678 64.9916 33.2498C65.2826 33.6499 65.4826 34.1046 65.5918 34.6138C65.7372 35.0867 65.7918 35.5777 65.7554 36.087C65.7191 36.5234 65.7372 36.9599 65.81 37.3964C65.8827 37.7965 65.9373 38.2148 65.9737 38.6513ZM94.0093 25.7749C94.3003 23.1196 95.1915 20.7371 96.6828 18.6275C97.0829 18.0818 97.4103 17.809 97.6649 17.809C97.8832 17.809 98.2287 18.0455 98.7016 18.5183C99.2835 19.1367 99.7746 19.7914 100.175 20.4825C100.575 21.1373 100.848 21.8829 100.993 22.7195C101.066 23.156 100.957 23.5197 100.666 23.8107C99.8292 24.6473 99.1199 25.5749 98.5379 26.5933C97.9923 27.6118 97.5376 28.703 97.1739 29.867C97.1011 30.0489 97.0284 30.2489 96.9556 30.4672C96.8829 30.6854 96.6828 30.7945 96.3554 30.7945C96.0645 30.7582 95.8098 30.6854 95.5916 30.5763C95.3733 30.4308 95.2097 30.2126 95.1005 29.9216C94.8096 29.2668 94.5367 28.6121 94.2821 27.9574C94.0639 27.2663 93.973 26.5388 94.0093 25.7749ZM69.075 78.4263H67.7109C67.0926 78.3535 66.5106 78.1898 65.965 77.9352C65.4194 77.717 64.9465 77.3532 64.5464 76.844C64.3282 76.553 64.1099 76.262 63.8917 75.971C63.6371 75.7164 63.3824 75.4436 63.1278 75.1526C62.9823 74.9707 62.855 74.7707 62.7459 74.5524C62.6368 74.3342 62.5458 74.0978 62.4731 73.8431C62.4003 73.5521 62.4367 73.3157 62.5822 73.1338C62.6913 72.952 62.8914 72.8429 63.1824 72.8065C65.183 72.7337 67.0744 72.2609 68.8567 71.3879C70.639 70.5149 72.2941 69.4055 73.8218 68.0597C75.3495 66.7138 76.7499 65.2225 78.023 63.5857C79.2597 61.9488 80.3327 60.3302 81.2421 58.7298C82.6606 56.2199 83.8974 53.6374 84.9522 50.9821C86.0071 48.3268 87.0437 45.6351 88.0622 42.9071C88.7533 41.0156 89.4444 39.1424 90.1355 37.2873C90.8266 35.4322 91.4268 33.5226 91.936 31.5584C91.9724 31.4129 92.0088 31.2856 92.0451 31.1765C92.0815 31.0673 92.1361 30.94 92.2088 30.7945C92.4271 30.3944 92.6635 30.1944 92.9181 30.1944C93.1363 30.1944 93.3728 30.3035 93.6274 30.5217C94.3913 31.2128 94.8459 32.0131 94.9914 32.9224C95.1005 33.6863 95.1369 34.4501 95.1005 35.214C95.1005 35.9778 95.046 36.7417 94.9369 37.5055C94.5367 39.979 94.0457 42.6343 93.4637 45.4714C92.9181 48.2722 92.2452 51.0912 91.445 53.9284C90.6447 56.7656 89.7172 59.5118 88.6624 62.1671C87.6075 64.8224 86.4072 67.2413 85.0613 69.4237C83.4245 72.079 81.4239 74.1341 79.0596 75.5891C76.6953 77.044 73.9673 77.9716 70.8755 78.3717C70.5845 78.4444 70.2935 78.4626 70.0025 78.4263C69.6751 78.3899 69.366 78.3717 69.075 78.3717V78.4263ZM112.543 47.3811C112.143 47.8903 111.779 48.345 111.452 48.7451C111.161 49.1088 110.87 49.4726 110.579 49.8363C109.669 51.0367 108.669 52.1461 107.578 53.1645C106.996 53.6738 106.432 54.0193 105.887 54.2012C105.377 54.4194 104.85 54.5286 104.304 54.5286C104.086 54.5286 103.85 54.5104 103.595 54.474C102.649 54.3649 101.885 53.8556 101.303 52.9463C101.194 52.7644 101.067 52.5644 100.921 52.3461L100.267 51.2549C100.158 51.073 100.03 50.873 99.8848 50.6547C99.3392 49.6726 99.0482 48.8724 99.0118 48.254C98.9755 47.5993 98.9573 47.1628 98.9573 46.9446C98.9573 46.108 99.0664 45.2714 99.2846 44.4348C99.903 42.2523 100.776 40.2336 101.904 38.3785C103.068 36.5234 104.559 34.8866 106.378 33.468C106.669 33.2498 106.941 33.0679 107.196 32.9224C107.451 32.7769 107.723 32.6314 108.014 32.4859C108.887 32.0494 109.651 31.8312 110.306 31.8312C110.633 31.8312 111.07 31.9403 111.615 32.1586C112.161 32.3404 112.816 32.886 113.58 33.7954C114.125 34.3774 114.544 35.0503 114.835 35.8142C115.125 35.5232 115.307 35.2322 115.38 34.9412C115.453 34.6502 115.544 34.3774 115.653 34.1228C115.944 33.5044 116.217 32.9224 116.471 32.3768C116.726 31.7948 117.053 31.2492 117.453 30.74C117.708 30.4126 117.872 30.2307 117.944 30.1944C118.054 30.158 118.126 30.1398 118.163 30.1398C118.308 30.1398 118.508 30.2489 118.763 30.4672C119.345 30.9037 119.763 31.3947 120.018 31.9403C120.309 32.4496 120.454 32.9952 120.454 33.5772C120.454 33.6863 120.454 33.8136 120.454 33.9591C120.382 35.0139 120.254 36.0688 120.072 37.1236C119.89 38.1785 119.709 39.2333 119.527 40.2881C119.236 41.8886 119.036 43.3436 118.927 44.653C118.817 45.9261 118.763 47.0719 118.763 48.0904C118.763 48.7087 118.781 49.3089 118.817 49.8909C118.854 50.4729 118.908 51.0367 118.981 51.5823C119.09 52.1643 119.345 52.7099 119.745 53.2191C119.89 53.4373 119.963 53.6192 119.963 53.7647C119.963 53.8375 119.927 53.9466 119.854 54.0921C119.818 54.2376 119.654 54.3831 119.363 54.5286C118.999 54.6741 118.708 54.7468 118.49 54.7468C118.308 54.7832 118.181 54.8014 118.108 54.8014C117.817 54.8014 117.526 54.7104 117.235 54.5286C116.399 53.9829 115.598 53.401 114.835 52.7826C114.107 52.1643 113.543 51.3458 113.143 50.3274C112.961 49.9273 112.834 49.4908 112.761 49.0179C112.688 48.545 112.616 47.9994 112.543 47.3811ZM105.668 47.8176C106.505 47.3083 107.251 46.7263 107.905 46.0716C108.56 45.4169 109.178 44.744 109.76 44.0529C110.342 43.3254 110.906 42.5979 111.452 41.8704C112.034 41.1429 112.634 40.4518 113.252 39.7971C113.361 39.688 113.416 39.5061 113.416 39.2515C113.416 39.1424 113.38 38.9423 113.307 38.6513C113.27 38.3603 113.161 38.1239 112.979 37.942C112.798 37.7602 112.616 37.6692 112.434 37.6692C112.361 37.6692 112.234 37.7238 112.052 37.8329C111.906 37.9057 111.725 37.9966 111.506 38.1057C111.361 38.1785 111.233 38.2694 111.124 38.3785C111.015 38.4876 110.888 38.5968 110.742 38.7059C110.124 39.2151 109.578 39.7789 109.106 40.3973C108.633 41.0156 108.196 41.6704 107.796 42.3615C107.323 43.1981 106.887 44.071 106.487 44.9804C106.123 45.8534 105.85 46.7991 105.668 47.8176ZM145.893 43.8892C145.384 43.5254 144.838 43.2344 144.256 43.0162C143.711 42.798 143.147 42.5797 142.565 42.3615C141.728 41.9977 141.019 41.5249 140.437 40.9429C139.892 40.3245 139.528 39.5425 139.346 38.5968C139.237 38.0875 139.091 37.5783 138.909 37.0691C138.728 36.5598 138.6 36.0324 138.528 35.4868C138.418 34.6502 138.437 33.8681 138.582 33.1407C138.764 32.4132 139.037 31.7039 139.401 31.0128C139.801 30.2489 140.292 29.5033 140.874 28.7758C141.492 28.0483 142.165 27.4118 142.892 26.8662C143.62 26.2842 144.402 25.8295 145.239 25.5021C146.112 25.1384 147.003 24.9565 147.912 24.9565C149.549 24.9565 151.04 25.5749 152.386 26.8116C153.514 27.8664 154.241 29.0304 154.568 30.3035C154.896 31.5766 154.95 32.9406 154.732 34.3956C154.659 34.7957 154.568 35.2504 154.459 35.7596C154.35 36.2325 154.187 36.6871 153.968 37.1236C153.75 37.5237 153.459 37.8693 153.095 38.1603C152.768 38.4513 152.331 38.5968 151.786 38.5968C151.24 38.5968 150.731 38.4149 150.258 38.0512C149.931 37.8329 149.713 37.5601 149.603 37.2327C149.494 36.6871 149.367 36.1597 149.221 35.6505C149.076 35.1049 148.949 34.5774 148.84 34.0682C148.73 33.559 148.73 33.2134 148.84 33.0315C148.985 32.8133 149.294 32.5951 149.767 32.3768C150.058 32.2677 150.331 32.1586 150.586 32.0494C150.877 31.9039 151.113 31.6675 151.295 31.3402C151.004 31.1947 150.731 31.1583 150.476 31.231C150.222 31.3038 149.967 31.3765 149.713 31.4493C148.294 31.8494 147.094 32.4859 146.112 33.3589C145.129 34.2319 144.256 35.2504 143.493 36.4143C143.238 36.7781 143.329 37.0509 143.765 37.2327C146.13 38.1785 148.058 39.4879 149.549 41.1611C151.077 42.8343 151.95 44.9804 152.168 47.5993C152.241 48.6542 152.004 49.5453 151.458 50.2728C150.913 51.0367 150.185 51.6732 149.276 52.1824C148.621 52.5462 147.93 52.8008 147.203 52.9463C146.512 53.1282 145.802 53.2555 145.075 53.3282C144.02 53.401 142.965 53.3646 141.91 53.2191C140.855 53.11 139.819 52.8735 138.8 52.5098C138.182 52.2552 137.636 51.9278 137.164 51.5277C136.691 51.1276 136.327 50.6002 136.072 49.9454C135.89 49.4362 135.709 48.9633 135.527 48.5269C135.345 48.054 135.163 47.5629 134.981 47.0537C134.763 46.4354 134.69 45.7624 134.763 45.035C134.836 44.4166 135.145 44.1984 135.69 44.3802C136.09 44.4893 136.454 44.653 136.782 44.8713C137.182 45.0895 137.655 45.2532 138.2 45.3623C138.782 45.4714 139.382 45.526 140.001 45.526C141.128 45.526 142.256 45.3805 143.383 45.0895C144.511 44.7985 145.348 44.3984 145.893 43.8892ZM169.402 49.3998C169.038 49.8363 168.693 50.2546 168.365 50.6547C168.074 51.0912 167.729 51.4913 167.329 51.8551C166.274 52.8008 165.092 53.2737 163.782 53.2737C163.419 53.2737 163.055 53.2373 162.691 53.1645C162.364 53.0918 162 53.0009 161.6 52.8917C161.018 52.7462 160.472 52.3643 159.963 51.746C159.563 51.164 159.163 50.582 158.763 50C158.363 49.418 157.981 48.8178 157.617 48.1995C156.926 47.1083 156.562 45.9807 156.526 44.8167C156.489 43.6164 156.58 42.416 156.798 41.2157C157.089 39.6152 157.526 38.0875 158.108 36.6326C158.726 35.1412 159.399 33.7045 160.127 32.3223C160.818 31.0128 161.436 30.3581 161.982 30.3581C162.273 30.3581 162.582 30.5217 162.909 30.8491C163.237 31.1765 163.619 31.613 164.055 32.1586C165.001 33.3589 165.274 34.7593 164.874 36.3598C164.546 37.6692 164.219 38.9787 163.891 40.2881C163.564 41.5976 163.273 42.9253 163.018 44.2711C162.837 45.3623 162.8 46.399 162.909 47.3811C163.091 47.4902 163.237 47.5084 163.346 47.4356C163.491 47.3629 163.637 47.2901 163.782 47.2174C165.055 46.5627 166.147 45.6897 167.056 44.5985C168.002 43.3981 168.911 42.1796 169.784 40.9429C170.693 39.6698 171.494 38.3421 172.185 36.9599C172.33 36.7053 172.603 36.2325 173.003 35.5413C173.403 34.8139 173.84 34.0864 174.313 33.3589C174.822 32.5951 175.313 31.9221 175.786 31.3402C176.295 30.7582 176.695 30.4672 176.986 30.4672C177.132 30.4672 177.386 30.649 177.75 31.0128C178.259 31.522 178.623 32.0858 178.841 32.7042C179.059 33.3225 179.078 33.9955 178.896 34.7229C178.496 36.3598 178.077 37.9602 177.641 39.5243C177.204 41.0884 176.786 42.6888 176.386 44.3257C175.804 46.399 175.495 48.4541 175.458 50.491C175.458 51.0367 175.477 51.5641 175.513 52.0733C175.586 52.6189 175.768 53.1463 176.059 53.6556C176.422 54.2376 176.259 54.6195 175.567 54.8014C175.386 54.8741 175.186 54.9287 174.967 54.965C174.785 55.0014 174.604 55.0196 174.422 55.0196C173.912 55.0196 173.458 54.8196 173.058 54.4194C172.33 53.7647 171.639 53.0918 170.984 52.4007C170.33 51.7096 169.893 50.8366 169.675 49.7818C169.638 49.709 169.602 49.6544 169.566 49.6181C169.529 49.5453 169.475 49.4726 169.402 49.3998ZM190.706 43.8892C190.197 43.5254 189.651 43.2344 189.069 43.0162C188.523 42.798 187.96 42.5797 187.378 42.3615C186.541 41.9977 185.832 41.5249 185.25 40.9429C184.704 40.3245 184.34 39.5425 184.158 38.5968C184.049 38.0875 183.904 37.5783 183.722 37.0691C183.54 36.5598 183.413 36.0324 183.34 35.4868C183.231 34.6502 183.249 33.8681 183.395 33.1407C183.576 32.4132 183.849 31.7039 184.213 31.0128C184.613 30.2489 185.104 29.5033 185.686 28.7758C186.305 28.0483 186.977 27.4118 187.705 26.8662C188.432 26.2842 189.214 25.8295 190.051 25.5021C190.924 25.1384 191.815 24.9565 192.725 24.9565C194.361 24.9565 195.853 25.5749 197.199 26.8116C198.326 27.8664 199.054 29.0304 199.381 30.3035C199.708 31.5766 199.763 32.9406 199.545 34.3956C199.472 34.7957 199.381 35.2504 199.272 35.7596C199.163 36.2325 198.999 36.6871 198.781 37.1236C198.563 37.5237 198.272 37.8693 197.908 38.1603C197.58 38.4513 197.144 38.5968 196.598 38.5968C196.053 38.5968 195.544 38.4149 195.071 38.0512C194.743 37.8329 194.525 37.5601 194.416 37.2327C194.307 36.6871 194.179 36.1597 194.034 35.6505C193.888 35.1049 193.761 34.5774 193.652 34.0682C193.543 33.559 193.543 33.2134 193.652 33.0315C193.798 32.8133 194.107 32.5951 194.58 32.3768C194.871 32.2677 195.143 32.1586 195.398 32.0494C195.689 31.9039 195.925 31.6675 196.107 31.3402C195.816 31.1947 195.544 31.1583 195.289 31.231C195.034 31.3038 194.78 31.3765 194.525 31.4493C193.106 31.8494 191.906 32.4859 190.924 33.3589C189.942 34.2319 189.069 35.2504 188.305 36.4143C188.05 36.7781 188.141 37.0509 188.578 37.2327C190.942 38.1785 192.87 39.4879 194.361 41.1611C195.889 42.8343 196.762 44.9804 196.98 47.5993C197.053 48.6542 196.817 49.5453 196.271 50.2728C195.725 51.0367 194.998 51.6732 194.089 52.1824C193.434 52.5462 192.743 52.8008 192.015 52.9463C191.324 53.1282 190.615 53.2555 189.887 53.3282C188.833 53.401 187.778 53.3646 186.723 53.2191C185.668 53.11 184.631 52.8735 183.613 52.5098C182.994 52.2552 182.449 51.9278 181.976 51.5277C181.503 51.1276 181.139 50.6002 180.885 49.9454C180.703 49.4362 180.521 48.9633 180.339 48.5269C180.157 48.054 179.975 47.5629 179.794 47.0537C179.575 46.4354 179.503 45.7624 179.575 45.035C179.648 44.4166 179.957 44.1984 180.503 44.3802C180.903 44.4893 181.267 44.653 181.594 44.8713C181.994 45.0895 182.467 45.2532 183.013 45.3623C183.595 45.4714 184.195 45.526 184.813 45.526C185.941 45.526 187.068 45.3805 188.196 45.0895C189.324 44.7985 190.16 44.3984 190.706 43.8892ZM218.403 36.3052C218.73 36.0142 219.039 35.7232 219.33 35.4322C219.621 35.1049 219.931 34.7957 220.258 34.5047C221.204 33.559 222.295 32.7769 223.532 32.1586C224.805 31.5038 226.132 31.1765 227.515 31.1765C228.278 31.1765 228.97 31.3765 229.588 31.7766C230.243 32.1404 230.897 32.7951 231.552 33.7408C232.461 35.0139 233.043 36.3779 233.298 37.8329C233.553 39.2515 233.425 40.7246 232.916 42.2523C232.516 43.4891 232.061 44.7076 231.552 45.9079C231.043 47.0719 230.552 48.254 230.079 49.4544C229.788 50.1819 229.515 50.9275 229.261 51.6914C229.042 52.4552 228.897 53.2373 228.824 54.0375C228.824 54.2194 228.806 54.3649 228.77 54.474C228.77 54.6195 228.788 54.7832 228.824 54.965C228.897 55.4743 228.824 55.8198 228.606 56.0017C228.424 56.1836 228.078 56.2563 227.569 56.2199C226.951 56.1836 226.387 56.0381 225.878 55.7835C225.405 55.5652 225.059 55.1287 224.841 54.474C224.659 53.9648 224.441 53.4737 224.186 53.0009C223.932 52.5644 223.714 52.0915 223.532 51.5823C223.059 50.4547 222.95 49.3635 223.204 48.3086C223.459 47.2538 223.841 46.2171 224.35 45.1986L228.442 37.8329C228.551 37.651 228.642 37.451 228.715 37.2327C228.824 37.0145 228.933 36.7781 229.042 36.5234C228.751 36.4143 228.479 36.3779 228.224 36.4143C227.969 36.4507 227.696 36.5053 227.405 36.578C226.242 36.8326 224.95 37.5055 223.532 38.5968C222.149 39.6516 220.785 40.8701 219.44 42.2523C218.094 43.6346 216.839 45.0713 215.675 46.5627C214.511 48.054 213.583 49.3453 212.892 50.4365C210.964 53.4192 208.255 54.8559 204.763 54.7468C204.472 54.7104 204.163 54.6922 203.835 54.6922C203.544 54.7286 203.253 54.7286 202.962 54.6922C202.344 54.5831 201.816 54.3467 201.38 53.9829C200.98 53.6556 200.58 53.2373 200.18 52.728C199.779 52.2552 199.525 51.8551 199.416 51.5277C199.27 51.2367 199.252 50.9639 199.361 50.7093C199.434 50.491 199.634 50.291 199.961 50.1091C200.252 49.9273 200.616 49.7454 201.053 49.5635C202.18 49.0179 203.144 48.4723 203.944 47.9267C204.781 47.3447 205.508 46.7082 206.127 46.0171C206.781 45.2896 207.363 44.4893 207.873 43.6164C208.418 42.7434 208.946 41.7249 209.455 40.561C210.292 38.5968 211.055 36.6144 211.746 34.6138C212.474 32.6132 213.201 30.6127 213.929 28.6121C214.62 26.6115 215.311 24.6292 216.002 22.665C216.693 20.6644 217.403 18.6638 218.13 16.6633C218.203 16.4814 218.312 16.245 218.457 15.954C218.603 15.6266 218.767 15.3174 218.949 15.0264C219.13 14.6991 219.33 14.4263 219.549 14.208C219.767 13.9534 219.985 13.8261 220.203 13.8261C220.422 13.8261 220.676 14.0261 220.967 14.4263C221.586 15.4084 221.877 16.445 221.84 17.5362C221.549 20.628 221.076 23.6834 220.422 26.7025C219.767 29.7215 219.058 32.7224 218.294 35.705C218.294 35.7778 218.276 35.8687 218.239 35.9778C218.239 36.0506 218.294 36.1597 218.403 36.3052ZM243.453 28.4484C243.635 27.2481 243.926 26.0477 244.326 24.8474C244.762 23.6107 245.381 22.4649 246.181 21.4101C246.581 20.9008 246.89 20.6462 247.108 20.6462C247.108 20.6462 247.163 20.6644 247.272 20.7008C247.418 20.7008 247.709 20.919 248.145 21.3555C248.691 21.9739 249.164 22.6104 249.564 23.2651C250 23.8835 250.273 24.611 250.382 25.4476C250.419 25.6658 250.437 25.8841 250.437 26.1023C250.437 26.3205 250.346 26.5206 250.164 26.7025C249.291 27.5754 248.563 28.5394 247.981 29.5942C247.436 30.6127 246.963 31.7039 246.563 32.8679C246.49 33.0497 246.417 33.2316 246.345 33.4135C246.308 33.5953 246.181 33.6863 245.963 33.6863C245.926 33.6863 245.89 33.6863 245.854 33.6863C245.272 33.6863 244.871 33.4498 244.653 32.977C244.326 32.2859 244.053 31.5948 243.835 30.9037C243.617 30.1762 243.489 29.3578 243.453 28.4484ZM244.271 36.7417C244.38 37.1782 244.435 37.6329 244.435 38.1057C244.435 38.3603 244.399 38.7423 244.326 39.2515C244.289 39.7607 244.235 40.3973 244.162 41.1611C243.908 43.1253 243.562 45.035 243.126 46.89C242.689 48.7451 242.053 50.5638 241.216 52.3461C240.998 52.7826 240.743 53.2555 240.452 53.7647C239.725 54.7104 239.143 55.2379 238.706 55.347C238.306 55.4925 237.96 55.5652 237.669 55.5652C237.124 55.5652 236.451 55.4379 235.651 55.1833C235.141 55.0014 234.778 54.6741 234.559 54.2012C234.341 53.7283 234.123 53.2555 233.905 52.7826C233.723 52.3461 233.541 51.8733 233.359 51.364C233.25 51.0367 233.195 50.7275 233.195 50.4365C233.195 50.291 233.232 50.1091 233.305 49.8909C233.377 49.6363 233.668 49.3635 234.178 49.0725C234.76 48.7087 235.232 48.2722 235.596 47.763C235.96 47.2174 236.305 46.6536 236.633 46.0716C237.579 44.2893 238.397 42.4888 239.088 40.6701C239.816 38.815 240.507 36.9236 241.161 34.9957C241.234 34.7047 241.307 34.4319 241.38 34.1773C241.489 33.9227 241.616 33.6499 241.762 33.3589C242.053 32.7042 242.253 32.3768 242.362 32.3768C242.507 32.3404 242.58 32.3223 242.58 32.3223C242.835 32.3223 243.162 32.6314 243.562 33.2498C244.035 33.9409 244.271 34.8684 244.271 36.0324C244.271 36.2506 244.271 36.4871 244.271 36.7417Z" fill="white"/>
</svg>
