<svg xmlns="http://www.w3.org/2000/svg" width="44" height="44" fill="none" viewBox="0 0 44 44"><path fill="#F8F8F8" d="M43.7003 1.95732C43.7419 1.66849 43.7174 1.37212 43.6293 1.09755C43.5411 0.822978 43.3924 0.579718 43.1978 0.391838C43.0032 0.203959 42.7694 0.0779731 42.5196 0.0263464C42.2698 -0.0252803 42.0127 -0.000758237 41.7737 0.0974859L0.967858 16.9134C0.698883 17.024 0.464014 17.2235 0.292426 17.4868C0.120838 17.7502 0.0200924 18.066 0.00270466 18.3949C-0.0146831 18.7238 0.0520529 19.0513 0.194623 19.3368C0.337193 19.6223 0.549313 19.8532 0.804635 20.0008L12.4634 26.7271C12.6932 26.8598 12.9493 26.9201 13.2057 26.9017C13.4622 26.8834 13.7099 26.7872 13.9237 26.6229L23.6005 19.1768L17.809 27.5376C17.683 27.7196 17.5911 27.9298 17.5391 28.1549C17.4872 28.3801 17.4764 28.6152 17.5074 28.8454C17.5383 29.0755 17.6104 29.2958 17.719 29.4922C17.8277 29.6885 17.9704 29.8567 18.1384 29.986L35.6266 43.4387C35.8291 43.5941 36.062 43.6885 36.3043 43.7134C36.5465 43.7383 36.7903 43.6928 37.0134 43.5811C37.2365 43.4695 37.4318 43.2951 37.5816 43.0741C37.7314 42.853 37.8308 42.5922 37.8709 42.3154L43.7003 1.95732Z"/></svg>