<svg xmlns="http://www.w3.org/2000/svg" width="57" height="33" fill="none" viewBox="0 0 57 33"><path fill="#F8F8F8" fill-rule="evenodd" d="M54.7167 2.212C55.104 0.938 54.7167 0 52.8617 0H46.7367C45.178 0 44.4593 0.809667 44.0697 1.70333C44.0697 1.70333 40.9547 9.16067 36.5423 14.0047C35.1143 15.4093 34.4657 15.855 33.6863 15.855C33.2967 15.855 32.711 15.4093 32.711 14.133V2.212C32.711 0.681333 32.2817 0 30.9843 0H21.3523C20.3793 0 19.7937 0.709333 19.7937 1.38367C19.7937 2.83267 22.001 3.16867 22.2273 7.24733V16.1093C22.2273 18.053 21.8703 18.4053 21.091 18.4053C19.0143 18.4053 13.9627 10.913 10.9643 2.34033C10.3833 0.672 9.79533 0 8.22967 0H2.1C0.35 0 0 0.809667 0 1.70333C0 3.29467 2.07667 11.2 9.67167 21.6557C14.735 28.7957 21.8633 32.6667 28.357 32.6667C32.2513 32.6667 32.732 31.808 32.732 30.3263V24.9293C32.732 23.2097 33.1007 22.8667 34.335 22.8667C35.245 22.8667 36.8013 23.3147 40.4367 26.7563C44.59 30.8373 45.2737 32.6667 47.6117 32.6667H53.7367C55.4867 32.6667 56.364 31.808 55.86 30.1093C55.3047 28.42 53.3213 25.9677 50.6917 23.058C49.2637 21.4013 47.1217 19.6163 46.4707 18.7227C45.563 17.577 45.822 17.066 46.4707 16.0463C46.4707 16.0463 53.9373 5.719 54.7143 2.212H54.7167Z" clip-rule="evenodd"/></svg>